<?xml version="1.0" encoding="utf-8"?>
<!-- Generator: Adobe Illustrator 24.1.0, SVG Export Plug-In . SVG Version: 6.00 Build 0)  -->
<svg version="1.1"
	 id="Capa_1" inkscape:version="1.0 (4035a4f, 2020-05-01)" sodipodi:docname="vaquero (1).svg" xmlns:cc="http://creativecommons.org/ns#" xmlns:dc="http://purl.org/dc/elements/1.1/" xmlns:inkscape="http://www.inkscape.org/namespaces/inkscape" xmlns:rdf="http://www.w3.org/1999/02/22-rdf-syntax-ns#" xmlns:sodipodi="http://sodipodi.sourceforge.net/DTD/sodipodi-0.dtd" xmlns:svg="http://www.w3.org/2000/svg"
	 xmlns="http://www.w3.org/2000/svg" xmlns:xlink="http://www.w3.org/1999/xlink" x="0px" y="0px" viewBox="0 0 496 496"
	 style="enable-background:new 0 0 496 496;" xml:space="preserve">
<style type="text/css">
	.st0{fill:url(#SVGID_1_);}
	.st1{fill:url(#SVGID_2_);}
	.st2{fill:url(#SVGID_3_);}
	.st3{fill:url(#SVGID_4_);}
	.st4{fill:url(#SVGID_5_);}
	.st5{fill:url(#SVGID_6_);}
	.st6{fill:url(#SVGID_7_);}
	.st7{fill:url(#SVGID_8_);}
	.st8{fill:url(#SVGID_9_);}
	.st9{fill:url(#SVGID_10_);}
	.st10{fill:url(#SVGID_11_);}
	.st11{fill:url(#SVGID_12_);}
	.st12{fill:url(#SVGID_13_);}
	.st13{fill:url(#SVGID_14_);}
	.st14{fill:url(#SVGID_15_);}
	.st15{fill:url(#SVGID_16_);}
	.st16{fill:url(#SVGID_17_);}
	.st17{fill:url(#SVGID_18_);}
	.st18{fill:url(#SVGID_19_);}
	.st19{fill:url(#SVGID_20_);}
	.st20{fill:url(#SVGID_21_);}
	.st21{fill:url(#SVGID_22_);}
	.st22{fill:url(#SVGID_23_);}
	.st23{opacity:0.4;fill:#835400;}
	.st24{fill:url(#SVGID_24_);}
	.st25{fill:url(#SVGID_25_);}
	.st26{fill:url(#SVGID_26_);}
	.st27{fill:url(#SVGID_27_);}
	.st28{fill:url(#SVGID_28_);}
	.st29{fill:url(#SVGID_29_);}
	.st30{fill:url(#SVGID_30_);}
	.st31{fill:url(#SVGID_31_);}
	.st32{fill:url(#SVGID_32_);}
	.st33{fill:url(#SVGID_33_);}
	.st34{fill:url(#SVGID_34_);}
	.st35{fill:url(#SVGID_35_);}
	.st36{fill:url(#SVGID_36_);}
	.st37{fill:url(#SVGID_37_);}
	.st38{fill:url(#SVGID_38_);}
	.st39{fill:url(#SVGID_39_);}
	.st40{fill:url(#SVGID_40_);}
	.st41{fill:#974F35;}
	.st42{fill:#86452A;}
	.st43{fill:url(#SVGID_41_);}
	.st44{fill:#FFFFFF;}
	.st45{fill:#9F5C44;}
	.st46{fill:#3F3B38;}
	.st47{fill:url(#SVGID_42_);}
	.st48{fill:url(#SVGID_43_);}
	.st49{fill:url(#SVGID_44_);}
	.st50{fill:url(#SVGID_45_);}
	.st51{fill:url(#SVGID_46_);}
	.st52{opacity:0.5;fill:#EBE3D5;}
	.st53{fill:url(#SVGID_47_);}
	.st54{fill:url(#SVGID_48_);}
	.st55{fill:url(#SVGID_49_);}
	.st56{fill:url(#SVGID_50_);}
	.st57{fill:url(#SVGID_51_);}
	.st58{fill:url(#SVGID_52_);}
</style>
<sodipodi:namedview  bordercolor="#666666" borderopacity="1" gridtolerance="10" guidetolerance="10" id="namedview920" inkscape:current-layer="Capa_1" inkscape:cx="255.98712" inkscape:cy="283.14332" inkscape:pageopacity="0" inkscape:pageshadow="2" inkscape:window-height="808" inkscape:window-maximized="1" inkscape:window-width="1440" inkscape:window-x="0" inkscape:window-y="23" inkscape:zoom="1.2520161" objecttolerance="10" pagecolor="#ffffff" showgrid="false">
	</sodipodi:namedview>
<g id="g889">
</g>
<g id="g891">
</g>
<g id="g893">
</g>
<g id="g895">
</g>
<g id="g897">
</g>
<g id="g899">
</g>
<g id="g901">
</g>
<g id="g903">
</g>
<g id="g905">
</g>
<g id="g907">
</g>
<g id="g909">
</g>
<g id="g911">
</g>
<g id="g913">
</g>
<g id="g915">
</g>
<g>
	<g>
		<linearGradient id="SVGID_1_" gradientUnits="userSpaceOnUse" x1="317.9466" y1="306.5262" x2="372.6187" y2="306.5262">
			<stop  offset="7.662840e-03" style="stop-color:#E06A41"/>
			<stop  offset="1" style="stop-color:#FF9A6A"/>
		</linearGradient>
		<path class="st0" d="M317.9,299.5c0,0,13.8,10.1,14.8,13.4c1,3.4,0.5,16.7,4.3,16.9c3.8,0.2,6.6-15.2,6.6-15.2l9.2,3
			c0,0,4.9,13.1,8.2,13.4c3.3,0.2,1.5-15.4,2.2-16.7c0.7-1.3,8.9-23.1,9.4-29.8C373.2,277.8,323,285.1,317.9,299.5z"/>
		<linearGradient id="SVGID_2_" gradientUnits="userSpaceOnUse" x1="310.5082" y1="308.9611" x2="378.3578" y2="308.9611">
			<stop  offset="7.662840e-03" style="stop-color:#F17954"/>
			<stop  offset="0.6398" style="stop-color:#FF9A6A"/>
			<stop  offset="0.9923" style="stop-color:#FFBD95"/>
		</linearGradient>
		<path class="st1" d="M310.5,299.5c0,0,13.8,10.1,14.8,13.4c1,3.4,0.5,16.7,4.3,16.9c3.8,0.2,6.6-15.2,6.6-15.2l9.2,3
			c0,0,4.9,13.1,8.2,13.4c3.3,0.2,4.6-15.1,5.3-16.4c0.7-1.3,22.6-4.9,19.1-23.8C376.8,284.2,315.5,285.1,310.5,299.5z"/>
		<g>
			<linearGradient id="SVGID_3_" gradientUnits="userSpaceOnUse" x1="10.8751" y1="194.1951" x2="47.3633" y2="194.1951">
				<stop  offset="0" style="stop-color:#FCD9BB"/>
				<stop  offset="0.9923" style="stop-color:#D68952"/>
			</linearGradient>
			<path class="st2" d="M46.5,182.7c0,0-4.3,1.4-10.2,0c-6-1.4-23.8,2-25.2,5.6c-1.4,3.7,7.3,16.2,18.1,17.6
				c6.3,0.8,18.2-7.1,18.2-7.1L46.5,182.7z"/>
			<linearGradient id="SVGID_4_" gradientUnits="userSpaceOnUse" x1="11.0264" y1="189.9523" x2="47.2119" y2="189.9523">
				<stop  offset="1.149430e-02" style="stop-color:#AC907F"/>
				<stop  offset="0.1095" style="stop-color:#A78670"/>
				<stop  offset="0.3412" style="stop-color:#9D7452"/>
				<stop  offset="0.5698" style="stop-color:#96663D"/>
				<stop  offset="0.7919" style="stop-color:#915E30"/>
				<stop  offset="1" style="stop-color:#905B2C"/>
			</linearGradient>
			<path class="st3" d="M39.6,189.1c0,0,1.5,7.5,2.7,8.4l4.9-1.5l-0.7-13.3c0,0-4.3,1.4-10.2,0c-6-1.4-23.8,2-25.2,5.6
				c0,0,7.3-2.8,16-3.3C34.8,184.7,39.6,189.1,39.6,189.1z"/>
		</g>
		
			<linearGradient id="SVGID_5_" gradientUnits="userSpaceOnUse" x1="360.6187" y1="303.2714" x2="447.2464" y2="303.2714" gradientTransform="matrix(1 3.300000e-03 -3.300000e-03 1 -1.3708 -4.3582)">
			<stop  offset="0" style="stop-color:#FCD9BB"/>
			<stop  offset="0.115" style="stop-color:#F5CBA9"/>
			<stop  offset="0.3189" style="stop-color:#EAB790"/>
			<stop  offset="0.5303" style="stop-color:#E3A97D"/>
			<stop  offset="0.7518" style="stop-color:#DEA173"/>
			<stop  offset="1" style="stop-color:#DD9E6F"/>
		</linearGradient>
		<path class="st4" d="M399.2,201.4c6.3,19.6,11.5,71.3,16.8,84.1c5.3,12.8,12.4,14.8,15,21.5c2,5.2,6.3,55.9,7.1,79.7
			c0.1,2.8,2,5.8,2.1,7.8c0.1,2.9-1.7,4-1.7,4l-15.4,0.6c0,0,1.7-3,0.9-7.7c-2.6-15.8-10.5-50.7-12-54.8c-2-5.4-46.3-52.6-53-72.8
			C352.4,243.7,399.2,201.4,399.2,201.4z"/>
		
			<linearGradient id="SVGID_6_" gradientUnits="userSpaceOnUse" x1="414.6026" y1="407.7263" x2="441.9912" y2="407.7263" gradientTransform="matrix(1 3.300000e-03 -3.300000e-03 1 -1.3708 -4.3582)">
			<stop  offset="1.149430e-02" style="stop-color:#AC907F"/>
			<stop  offset="0.1095" style="stop-color:#A78670"/>
			<stop  offset="0.3412" style="stop-color:#9D7452"/>
			<stop  offset="0.5698" style="stop-color:#96663D"/>
			<stop  offset="0.7919" style="stop-color:#915E30"/>
			<stop  offset="1" style="stop-color:#905B2C"/>
		</linearGradient>
		<path class="st5" d="M423.1,399.1c0,0-2.6,0.3-3.6,1.2c-1.8,1.5-4.9,4.5-6,6c-1.8,2.4-1.6,4.7-1.6,4.7l27.4,0.1l-0.7-12.6
			L423.1,399.1z"/>
		
			<linearGradient id="SVGID_7_" gradientUnits="userSpaceOnUse" x1="129.858" y1="324.9355" x2="192.5175" y2="324.9355" gradientTransform="matrix(1 3.300000e-03 -3.300000e-03 1 -1.3708 -4.3582)">
			<stop  offset="0" style="stop-color:#FCD9BB"/>
			<stop  offset="0.115" style="stop-color:#F5CBA9"/>
			<stop  offset="0.3189" style="stop-color:#EAB790"/>
			<stop  offset="0.5303" style="stop-color:#E3A97D"/>
			<stop  offset="0.7518" style="stop-color:#DEA173"/>
			<stop  offset="1" style="stop-color:#DD9E6F"/>
		</linearGradient>
		<path class="st6" d="M128.8,240.4c-7.9,13.9,28,75,30.1,80.8c2.1,5.8,3.4,6.2,4.3,16.3c0.9,10.1,4.2,20.8,6.5,32.8
			c1.7,9.3,2.9,22,2.6,29.6c-0.1,3.4-1.7,6.6-1.7,6.6l16.6,0.1c0,0,2.5-2.4,2.6-4.2c0.2-2.3-1.9-5.9-1.7-7.6
			c1.8-18.6-2.1-56.8-0.6-62c1.9-6.5,1.4-18.4,1.5-28.7c0.1-10.3,1.7-29-6.8-41.8C173.6,249.4,137.3,225.5,128.8,240.4z"/>
		
			<linearGradient id="SVGID_8_" gradientUnits="userSpaceOnUse" x1="242.4035" y1="182.8786" x2="242.4035" y2="430.9216" gradientTransform="matrix(1 3.300000e-03 -3.300000e-03 1 -1.3708 -4.3582)">
			<stop  offset="7.662840e-03" style="stop-color:#FDE3CD"/>
			<stop  offset="0.2337" style="stop-color:#FCD9BB"/>
			<stop  offset="0.9923" style="stop-color:#D68952"/>
		</linearGradient>
		<path class="st7" d="M400.2,205.5c0-1.4-0.3-2.8-1-4.2c-2.9-10.3-10-20.7-20.6-24.3c-12.1-4.1-37.3-7.7-44.3-7.7
			c-7.1,0-73.2,14.4-100.8,11.3c-27.6-3.1-63.1-8.8-85.2-7.8c-18.6,0.8-72.6,16.9-74.7,19.9c-2,3-5.7,35.3-5.7,35.3
			s37,95.8,46.2,96.7c36.6,3.4,85.2-15.8,93.5-18.3c11.4-3.4,53,4.9,76.3,5.3c17.7,0.3,41.7-20.1,60-19.3c9,0.4,22.1,13.5,30,29.7
			c6.7,13.7,13.2,16.2,13.2,24.4c0,6.6-3.8,45.2-6.9,60.7c-0.8,4.1-4.5,7-4.5,7l17.9-0.1c0,0,2.3-1.8,2.9-4c0.3-1-0.5-3.3-0.2-4.6
			c4.5-17.6,15.8-62.3,15.9-71.4c0-11.4-8.2-19.4-11.7-33C396.6,285.2,401.4,212.2,400.2,205.5z"/>
		
			<linearGradient id="SVGID_9_" gradientUnits="userSpaceOnUse" x1="377.7328" y1="254.7514" x2="471.4709" y2="254.7514" gradientTransform="matrix(1 3.300000e-03 -3.300000e-03 1 -1.3708 -4.3582)">
			<stop  offset="0.1093" style="stop-color:#FDE3CD"/>
			<stop  offset="0.122" style="stop-color:#FDE2CC"/>
			<stop  offset="0.2534" style="stop-color:#FCDCC0"/>
			<stop  offset="0.3834" style="stop-color:#FCD9BB"/>
			<stop  offset="0.9923" style="stop-color:#EAC2A5"/>
		</linearGradient>
		<path class="st8" d="M375.8,176.2c0,0,28,6.7,37.2,13.6c17.9,13.4,24,46.9,28.6,75.7c2.9,17.9,7.6,35.6,12,42.7
			c4.3,7.1,15.4,15.2,15.4,15.2l-1.4,4c0,0-9.4-6.1-16.7-16.2c-7.4-10.1-11.1-28.7-16-48.8c-3-12.4-12.4-56.2-23.7-58.9
			c-8.9-2.1-12.4,0-12.4,0L375.8,176.2z"/>
		
			<linearGradient id="SVGID_10_" gradientUnits="userSpaceOnUse" x1="367.9823" y1="423.0198" x2="396.295" y2="423.0198" gradientTransform="matrix(1 3.300000e-03 -3.300000e-03 1 -1.3708 -4.3582)">
			<stop  offset="1.149430e-02" style="stop-color:#AC907F"/>
			<stop  offset="4.893568e-02" style="stop-color:#AB8E7C"/>
			<stop  offset="0.9923" style="stop-color:#905B2C"/>
		</linearGradient>
		<path class="st9" d="M377.2,413.9c0,0-3.4,0.3-4.4,1.2c-1.8,1.5-4.9,4.5-6,6c-1.8,2.4-1.6,4.7-1.6,4.7l27.4,0.1l1-11.9
			L377.2,413.9z"/>
		
			<linearGradient id="SVGID_11_" gradientUnits="userSpaceOnUse" x1="161.5868" y1="416.2611" x2="189.8994" y2="416.2611" gradientTransform="matrix(1 3.300000e-03 -3.300000e-03 1 -1.3708 -4.3582)">
			<stop  offset="1.149430e-02" style="stop-color:#AC907F"/>
			<stop  offset="0.1095" style="stop-color:#A78670"/>
			<stop  offset="0.3412" style="stop-color:#9D7452"/>
			<stop  offset="0.5698" style="stop-color:#96663D"/>
			<stop  offset="0.7919" style="stop-color:#915E30"/>
			<stop  offset="1" style="stop-color:#905B2C"/>
		</linearGradient>
		<path class="st10" d="M170.1,406.5c0,0-2.6,0.3-3.6,1.2c-1.8,1.5-4.9,4.5-6,6c-1.8,2.4-1.6,4.7-1.6,4.7l27.4,0.1l1-11.9
			L170.1,406.5z"/>
		
			<linearGradient id="SVGID_12_" gradientUnits="userSpaceOnUse" x1="447.2056" y1="330.7359" x2="487.6262" y2="330.7359" gradientTransform="matrix(1 3.300000e-03 -3.300000e-03 1 -1.3708 -4.3582)">
			<stop  offset="7.662840e-03" style="stop-color:#905B2C"/>
			<stop  offset="0.9511" style="stop-color:#AB8E7C"/>
			<stop  offset="0.9885" style="stop-color:#AC907F"/>
		</linearGradient>
		<path class="st11" d="M444.9,299.3c0,0-0.1,0.7-0.1,2c0,3.8,0.7,12.1,5.7,19c6.7,9.1,22.8,19.2,26.8,26s4,11.1,4,11.1
			s7.4-16.2,1.4-29c-6-12.7-31-23.1-32.4-27.1c-1.4-3.9-4.8-2.6-4.8-2.6L444.9,299.3z"/>
		
			<linearGradient id="SVGID_13_" gradientUnits="userSpaceOnUse" x1="151.0015" y1="182.9163" x2="151.0015" y2="417.7925" gradientTransform="matrix(1 3.300000e-03 -3.300000e-03 1 -1.3708 -4.3582)">
			<stop  offset="0.1093" style="stop-color:#FDE3CD"/>
			<stop  offset="0.122" style="stop-color:#FDE2CC"/>
			<stop  offset="0.2534" style="stop-color:#FCDCC0"/>
			<stop  offset="0.3834" style="stop-color:#FCD9BB"/>
			<stop  offset="0.9923" style="stop-color:#DE9D6E"/>
		</linearGradient>
		<path class="st12" d="M125.3,232.3c-10.5,12,7.6,80.2,8.4,86.3c0.9,6.1,2.1,15.8,0.9,25.9c-1.2,10.1,3.2,9.1,2.9,15.5
			c-1,23-5.2,45-7.5,51.7c-1.2,3.5-3,4.5-3,4.5l17.1,0.1c0,0,3.8-1.4,4.2-3c0.9-3.1-1.3-5.2,1.1-12.8c6.4-20.5,11.3-58.5,13.6-62.9
			c3.1-6,5.7-20.6,7.9-30.7s7.6-28.1,1.9-42.3C167.2,250.3,136.6,219.4,125.3,232.3z"/>
		
			<linearGradient id="SVGID_14_" gradientUnits="userSpaceOnUse" x1="118.6624" y1="426.0477" x2="146.975" y2="426.0477" gradientTransform="matrix(1 3.300000e-03 -3.300000e-03 1 -1.3708 -4.3582)">
			<stop  offset="1.149430e-02" style="stop-color:#AC907F"/>
			<stop  offset="4.893568e-02" style="stop-color:#AB8E7C"/>
			<stop  offset="0.9923" style="stop-color:#905B2C"/>
		</linearGradient>
		<path class="st13" d="M127.1,416.2c0,0-2.6,0.3-3.6,1.2c-1.8,1.5-4.9,4.5-6,6c-1.8,2.4-1.6,4.7-1.6,4.7l27.4,0.1l1-11.9
			L127.1,416.2z"/>
		<linearGradient id="SVGID_15_" gradientUnits="userSpaceOnUse" x1="249.4683" y1="175.1638" x2="249.4683" y2="258.5198">
			<stop  offset="1.149430e-02" style="stop-color:#AC907F"/>
			<stop  offset="2.834122e-02" style="stop-color:#AB8F7D"/>
			<stop  offset="0.4635" style="stop-color:#9D7351"/>
			<stop  offset="0.8019" style="stop-color:#936136"/>
			<stop  offset="1" style="stop-color:#905B2C"/>
		</linearGradient>
		<path class="st14" d="M413,189.8c-8.9-6.7-35.3-13.1-37.1-13.6c-14.4-4.7-41.6-6.9-41.6-6.9c-7.1,0-73.2,14.4-100.8,11.3
			c-27.6-3.1-63.1-8.8-85.2-7.8c-6,0.2-15.8,2.1-26.4,4.6l-23,5.8c0,0,0.6,0.7,1.6,1.9c-4.7,0.4-8.6,0.9-10.8,1.2
			c-0.7,0.2-1.4,0.4-2.1,0.7l-16.6,17c-1.6,10.4-3.2,24-3.2,24s19.3,49.9,33.5,78c0,0,10.1,3.6,14.8,0c11.4-8.5,9.8-13.4,10.2-21.2
			c2.1-36.2,39.2,20.3,43-18.4c2.6-26.1-39.4-28-29.4-44c3.9-6.3,31.4-32.4,49.7-18.4c28.3,21.6,42.7-0.6,46.4,4.5
			c3.6,5.1-3.7,28.5,2.7,41.3c6.4,12.8,28.3,19,34.1,27.1s18,19.3,30.1,10.3c12.1-9,26.8,5.8,30.7-8.2c5.8-20.9,11.1-3.2,30.1-9
			c6.8,10.8,29.6,4.1,30.1,10c0.5,6.8-8.6,11.2-0.1,19.1c2.7,2.4,5.5,4.6,8,6.5c-0.5-1.5-1-3-1.4-4.6c-4-15.7,0.8-88.7-0.4-95.4
			c0-0.8-0.1-1.6-0.3-2.4c1.6-0.5,5.2-1.1,11.4,0.4c5.7,1.4,11,13.5,15.2,26.6c2.1-2,3.5-6.8,4.5-12.3
			C426.7,205.9,421.1,195.8,413,189.8z"/>
		<linearGradient id="SVGID_16_" gradientUnits="userSpaceOnUse" x1="162.7785" y1="293.2634" x2="162.7785" y2="356.7241">
			<stop  offset="1.149430e-02" style="stop-color:#AC907F"/>
			<stop  offset="4.922820e-02" style="stop-color:#AB8E7C"/>
			<stop  offset="1" style="stop-color:#905B2C"/>
		</linearGradient>
		<path class="st15" d="M156.1,325c-2.3,7,3.3,11.2,0,15.9c-3.3,4.7-0.6,12.1-0.6,12.1l3.5,4.3c1.8-10.1,3.3-18,4.3-19.8
			c3.1-6,5.7-20.6,7.9-30.7C171.1,306.8,158.4,318,156.1,325z"/>
		<g>
			
				<linearGradient id="SVGID_17_" gradientUnits="userSpaceOnUse" x1="2070.7607" y1="192.1554" x2="2107.2488" y2="192.1554" gradientTransform="matrix(-1 0 0 1 2192.8689 0)">
				<stop  offset="0" style="stop-color:#FCD9BB"/>
				<stop  offset="0.9923" style="stop-color:#D68952"/>
			</linearGradient>
			<path class="st16" d="M86.5,180.7c0,0,4.3,1.4,10.2,0c6-1.4,23.8,2,25.2,5.6c1.4,3.7-7.3,16.2-18.1,17.6
				c-6.3,0.8-18.2-7.1-18.2-7.1L86.5,180.7z"/>
			
				<linearGradient id="SVGID_18_" gradientUnits="userSpaceOnUse" x1="2070.9121" y1="187.9126" x2="2107.0977" y2="187.9126" gradientTransform="matrix(-1 0 0 1 2192.8689 0)">
				<stop  offset="1.149430e-02" style="stop-color:#AC907F"/>
				<stop  offset="0.1095" style="stop-color:#A78670"/>
				<stop  offset="0.3412" style="stop-color:#9D7452"/>
				<stop  offset="0.5698" style="stop-color:#96663D"/>
				<stop  offset="0.7919" style="stop-color:#915E30"/>
				<stop  offset="1" style="stop-color:#905B2C"/>
			</linearGradient>
			<path class="st17" d="M93.4,187.1c0,0-2.6,7.5-3.8,8.4l-3.8-1.5l0.7-13.3c0,0,4.3,1.4,10.2,0c6-1.4,23.8,2,25.2,5.6
				c0,0-7.3-2.8-16-3.3C98.2,182.6,93.4,187.1,93.4,187.1z"/>
		</g>
		<linearGradient id="SVGID_19_" gradientUnits="userSpaceOnUse" x1="81.0838" y1="167.6139" x2="107.7248" y2="167.6139">
			<stop  offset="7.662840e-03" style="stop-color:#905B2C"/>
			<stop  offset="0.9511" style="stop-color:#AB8E7C"/>
			<stop  offset="0.9885" style="stop-color:#AC907F"/>
		</linearGradient>
		<path class="st18" d="M107.4,159c1.4,0.4-1,11.8-8.4,14.7c-8.9,3.4-17.9,2.4-17.9,2.4v-8.2c0,0,5.7,1.7,14.3-0.9
			C103.2,164.5,105.4,158.5,107.4,159z"/>
		<linearGradient id="SVGID_20_" gradientUnits="userSpaceOnUse" x1="27.71" y1="167.0221" x2="53.2213" y2="167.0221">
			<stop  offset="7.662840e-03" style="stop-color:#905B2C"/>
			<stop  offset="0.9511" style="stop-color:#AB8E7C"/>
			<stop  offset="0.9885" style="stop-color:#AC907F"/>
		</linearGradient>
		<path class="st19" d="M28.3,156.9c-1.4,0.3-0.5,13.1,6.7,16.5c8.6,4.1,17.7,3.7,17.7,3.7l0.6-8.2c0,0-5.8,1.3-14.1-2
			C31.4,163.9,30.3,156.5,28.3,156.9z"/>
		<linearGradient id="SVGID_21_" gradientUnits="userSpaceOnUse" x1="66.3494" y1="177.3757" x2="66.3494" y2="264.9274">
			<stop  offset="1.149430e-02" style="stop-color:#AC907F"/>
			<stop  offset="0.198" style="stop-color:#AA8C79"/>
			<stop  offset="0.4539" style="stop-color:#A48167"/>
			<stop  offset="0.7486" style="stop-color:#9A6E4A"/>
			<stop  offset="1" style="stop-color:#905B2C"/>
		</linearGradient>
		<path class="st20" d="M47.9,261.5c-3.9-3.4,1.1-14.2,0-17.3c-1.1-3.1-4.1-15.7-3.5-20.8s0.6-8.2,0.6-8.2s-5-10.4-3.5-16.6
			c1.4-6.2,5.4-7.9,5.1-13.6c-0.3-5.7,1.7-7.7,4-7.9c2.3-0.3,31.5-2,34.6,0c3.1,2,2.6,11.6,2.8,14.2c0.3,2.6,3.7,6.5,3.7,12.2
			c0,5.7-3.7,11.6-4,12.8c-0.3,1.1,0.6,9.4-0.3,13.9c-0.9,4.5-6.5,15-6.5,17.9c0,2.8,1.1,11.1,0,13.6c-1.1,2.6-11.3,5.1-17.9,4.8
			C56.4,266.1,50.2,263.5,47.9,261.5z"/>
		<linearGradient id="SVGID_22_" gradientUnits="userSpaceOnUse" x1="68.312" y1="255.1922" x2="75.1274" y2="255.1922">
			<stop  offset="7.662840e-03" style="stop-color:#905B2C"/>
			<stop  offset="0.9847" style="stop-color:#5A0E00"/>
		</linearGradient>
		<path class="st21" d="M68.3,258.1c-0.3-2,6.8-8.2,6.8-8.2s-1.4,8.8-3.4,10.2S68.3,258.1,68.3,258.1z"/>
		<linearGradient id="SVGID_23_" gradientUnits="userSpaceOnUse" x1="49.8842" y1="255.3622" x2="56.9749" y2="255.3622">
			<stop  offset="7.662840e-03" style="stop-color:#905B2C"/>
			<stop  offset="0.9847" style="stop-color:#5A0E00"/>
		</linearGradient>
		<path class="st22" d="M49.9,249.9c0,0,7.1,6,7.1,8.2c0,2.3-1.4,3.2-3.5,2.3C51.3,259.6,49.9,249.9,49.9,249.9z"/>
		<path class="st23" d="M52.2,210.3c1.1-0.6-0.5-8.7-4.8-10.4c-4.3-1.7-5.3,2.3-5,3.8c0.3,1.6,2.5,1.6,5,3.7
			C49.9,209.6,51.2,210.9,52.2,210.3z"/>
		<path class="st23" d="M79.5,212.4c-1.1-0.6,0.5-8.7,4.8-10.4c4.3-1.7,5.3,2.3,5,3.8c-0.3,1.6-2.5,1.6-5,3.7
			C81.7,211.7,80.5,213,79.5,212.4z"/>
		<linearGradient id="SVGID_24_" gradientUnits="userSpaceOnUse" x1="47.865" y1="172.3965" x2="84.5471" y2="172.3965">
			<stop  offset="7.662840e-03" style="stop-color:#FDE3CD"/>
			<stop  offset="0.5172" style="stop-color:#FCD9BB"/>
			<stop  offset="0.9923" style="stop-color:#D68952"/>
		</linearGradient>
		<path class="st24" d="M49.4,168.7c-2.1,1.3-2,8.9-0.2,9.2c2.1,0.4,32.1,0.4,34.1-1.4c2-1.8,1.3-7.9-0.4-8.9
			C80.2,165.9,52.5,166.8,49.4,168.7z"/>
		<linearGradient id="SVGID_25_" gradientUnits="userSpaceOnUse" x1="65.6509" y1="181.4973" x2="65.6509" y2="271.322">
			<stop  offset="7.662840e-03" style="stop-color:#FDE3CD"/>
			<stop  offset="0.5172" style="stop-color:#FCD9BB"/>
			<stop  offset="0.9923" style="stop-color:#D68952"/>
		</linearGradient>
		<path class="st25" d="M57.6,178.1c0,0-0.7,11.3-0.7,14.1c0,4.2,4.1,7.6,4.6,10.2c0.5,2.4-0.5,12-1.3,19.7
			c-0.4,3.6,0.4,16.7,0.2,20c-0.2,3.2-3.5,6.4-3.5,9.2c0,2,0.9,4.1,1.2,9.3c0.1,2.1,0.5,6.1,4.8,5.9c4.3-0.2,4.4-4.1,4.3-5.9
			c-0.2-4.5,2.1-6.6,2-9.1c-0.2-3.5-2.6-6.5-2-9.5c0.6-3,1.9-14.1,1.9-18.8c0-5.1-1.1-18-0.2-20.5c1-2.7,5.5-7.4,5.3-10.3
			c-0.4-4.6-0.8-14.4-0.8-14.4L57.6,178.1z"/>
		<linearGradient id="SVGID_26_" gradientUnits="userSpaceOnUse" x1="422.0997" y1="350.9261" x2="441.1836" y2="350.9261">
			<stop  offset="0" style="stop-color:#905B2C"/>
			<stop  offset="0.4615" style="stop-color:#915C2E"/>
			<stop  offset="0.6277" style="stop-color:#936135"/>
			<stop  offset="0.7462" style="stop-color:#976840"/>
			<stop  offset="0.842" style="stop-color:#9D7351"/>
			<stop  offset="0.9232" style="stop-color:#A48167"/>
			<stop  offset="0.9885" style="stop-color:#AC907F"/>
		</linearGradient>
		<path class="st26" d="M440.2,394.5c-0.1-1.9-2-4.9-2.1-7.8c-0.8-23.8-5-74.5-7.1-79.7c-1.6,6.3-10.8,6.8-8.7,20.4
			c2,13.5,7.2,18.3,6.6,23.5C425.6,379.6,440.3,397.4,440.2,394.5z"/>
		<linearGradient id="SVGID_27_" gradientUnits="userSpaceOnUse" x1="41.5579" y1="204.9113" x2="52.6019" y2="204.9113">
			<stop  offset="1.149430e-02" style="stop-color:#AC907F"/>
			<stop  offset="0.4668" style="stop-color:#A07A64"/>
			<stop  offset="1" style="stop-color:#905B40"/>
		</linearGradient>
		<path class="st27" d="M52.2,210.3c0,0-1.2-6.7-4.3-8.7c-3.1-2-4.9,0.1-5.5,0c-0.6-0.1-0.8-0.9-0.8-0.9s0.9,0,1.9-0.7
			c1.1-0.7,5.3-1.4,7.4,3C52.6,206.8,53,209.5,52.2,210.3z"/>
		
			<linearGradient id="SVGID_28_" gradientUnits="userSpaceOnUse" x1="2138.5889" y1="206.6632" x2="2149.543" y2="206.6632" gradientTransform="matrix(-1 0 0 1 2228.3367 0)">
			<stop  offset="1.149430e-02" style="stop-color:#AC907F"/>
			<stop  offset="0.4668" style="stop-color:#A07A64"/>
			<stop  offset="1" style="stop-color:#905B40"/>
		</linearGradient>
		<path class="st28" d="M79.3,212.1c0,0,1.1-6.8,4.2-8.8c3.1-2,4.9,0.1,5.5,0c0.6-0.1,0.8-0.9,0.8-0.9s-0.9,0-1.9-0.7
			c-1.1-0.7-5.3-1.4-7.4,3C78.7,208.5,78.4,211.3,79.3,212.1z"/>
	</g>
	<g>
		<linearGradient id="SVGID_29_" gradientUnits="userSpaceOnUse" x1="296.7845" y1="126.2454" x2="299.9485" y2="126.2454">
			<stop  offset="3.831420e-03" style="stop-color:#F5443C"/>
			<stop  offset="6.771139e-03" style="stop-color:#F4443C"/>
			<stop  offset="0.1384" style="stop-color:#DB3B38"/>
			<stop  offset="0.2835" style="stop-color:#C73435"/>
			<stop  offset="0.4495" style="stop-color:#B93033"/>
			<stop  offset="0.6526" style="stop-color:#B02D31"/>
			<stop  offset="1" style="stop-color:#AE2C31"/>
		</linearGradient>
		<polygon class="st29" points="299.5,128.3 297.8,128.1 296.8,124.1 299.9,126.1 		"/>
		<linearGradient id="SVGID_30_" gradientUnits="userSpaceOnUse" x1="273.7854" y1="126.0838" x2="297.8101" y2="126.0838">
			<stop  offset="0" style="stop-color:#FF9A6A"/>
			<stop  offset="0.9923" style="stop-color:#F17954"/>
		</linearGradient>
		<path class="st30" d="M275.3,128.5c0,0,3-1.8,3.5-8.7c0.5-6.9-1-14.6-1-14.6l16.8,1.3c0,0,0.2,9.1,1.2,13.4c0.9,3.8,0.8,3.5,2,8.1
			l-5.7,18.9l-18.3-4.5L275.3,128.5z"/>
		<linearGradient id="SVGID_31_" gradientUnits="userSpaceOnUse" x1="270.1103" y1="288.4122" x2="309.8018" y2="295.1036">
			<stop  offset="1.149430e-02" style="stop-color:#6A87AF"/>
			<stop  offset="0.5175" style="stop-color:#636C8B"/>
			<stop  offset="0.9885" style="stop-color:#5E566D"/>
		</linearGradient>
		<path class="st31" d="M268,356.1c-7.2-1-1.8-130-1.8-130h38.3c0,0-6.6,130.1-12.4,130.1C286.1,356.2,268,356.1,268,356.1z"/>
		<linearGradient id="SVGID_32_" gradientUnits="userSpaceOnUse" x1="283.1116" y1="285.5228" x2="339.6046" y2="293.5963">
			<stop  offset="1.149430e-02" style="stop-color:#6A87AF"/>
			<stop  offset="0.173" style="stop-color:#677B9E"/>
			<stop  offset="0.4915" style="stop-color:#626783"/>
			<stop  offset="0.7737" style="stop-color:#5F5A73"/>
			<stop  offset="0.9885" style="stop-color:#5E566D"/>
		</linearGradient>
		<path class="st32" d="M282.4,229.7c0,0,27.1,125.8,37,125.8c0,0,22.1,0,26,0c8.5,0-24.2-129.4-24.2-129.4L282.4,229.7z"/>
		<linearGradient id="SVGID_33_" gradientUnits="userSpaceOnUse" x1="264.7553" y1="175.8257" x2="303.9834" y2="180.8378">
			<stop  offset="7.662840e-03" style="stop-color:#FDE3CD"/>
			<stop  offset="0.4253" style="stop-color:#FCD9BB"/>
			<stop  offset="0.9962" style="stop-color:#E2AA81"/>
		</linearGradient>
		<path class="st33" d="M260.2,129.3c1-1,15.1-0.8,15.1-0.8s3,8.1,10.1,8.1s12.4-8.5,12.4-8.5s20.2,3.3,21.2,3.9
			c1.1,0.7-1.8,94.1-1.8,94.1s-21.5,3.9-34.9,3.6c-13.4-0.4-16.1-3.6-16.1-3.6s-10.1-73.1-8.7-82.2
			C258.8,134.9,260.2,129.3,260.2,129.3z"/>
		<linearGradient id="SVGID_34_" gradientUnits="userSpaceOnUse" x1="212.8843" y1="189.8067" x2="301.2007" y2="189.8067">
			<stop  offset="3.831420e-03" style="stop-color:#F5443C"/>
			<stop  offset="0.2707" style="stop-color:#ED443D"/>
			<stop  offset="0.6835" style="stop-color:#D7433F"/>
			<stop  offset="1" style="stop-color:#C24242"/>
		</linearGradient>
		<path class="st34" d="M212.9,173c0,0,36.7-41.4,42.1-43.4c3.5-1.2,16.4-1.4,16.4-1.4s-6.1,10.7-6.5,23.9
			c-0.3,13.3,8.9,99.1,8.9,99.1s-12.3-0.5-15.1-2.7c-2.9-2.2-0.6-15.1-1.3-33.9c-0.7-18.8-4.1-52.3-4.1-52.3l-32.4,25.9L212.9,173z"
			/>
		<linearGradient id="SVGID_35_" gradientUnits="userSpaceOnUse" x1="273.5344" y1="131.6879" x2="299.0991" y2="131.6879">
			<stop  offset="7.662840e-03" style="stop-color:#FDE3CD"/>
			<stop  offset="0.4253" style="stop-color:#FCD9BB"/>
			<stop  offset="0.9962" style="stop-color:#E2AA81"/>
		</linearGradient>
		<path class="st35" d="M275.1,125.4c0,0,2.1,10,9.8,9.9c7.7-0.1,12.4-9.1,12.4-9.1l1.8,2c0,0-3.7,9.1-13.8,9.6
			c-10.1,0.5-11.8-10.6-11.8-10.6L275.1,125.4z"/>
		<linearGradient id="SVGID_36_" gradientUnits="userSpaceOnUse" x1="290.6585" y1="189.4252" x2="343.3598" y2="189.4252">
			<stop  offset="3.831420e-03" style="stop-color:#F5443C"/>
			<stop  offset="8.418414e-02" style="stop-color:#ED413B"/>
			<stop  offset="0.4711" style="stop-color:#CB3635"/>
			<stop  offset="0.7902" style="stop-color:#B62F32"/>
			<stop  offset="1" style="stop-color:#AE2C31"/>
		</linearGradient>
		<path class="st36" d="M301.2,128.4c0,0-3.5,14-4,24.6c-0.5,10.6,5,95.5,6.3,96.3c1.3,0.8,22.7,2,24.2,0c1.5-2-5-58.7-5.8-64.5
			c-0.8-5.8-0.5-9-0.5-9l16.1,28.2l12.3-6.8c0,0-23.2-63.3-27.9-65.3C317.7,130.1,301.2,128.4,301.2,128.4z"/>
		<linearGradient id="SVGID_37_" gradientUnits="userSpaceOnUse" x1="144.5634" y1="176.8403" x2="220.2214" y2="176.8403">
			<stop  offset="0" style="stop-color:#FF9A67"/>
			<stop  offset="4.653365e-03" style="stop-color:#FF9B68"/>
			<stop  offset="0.1615" style="stop-color:#FFAE81"/>
			<stop  offset="0.3049" style="stop-color:#FFB990"/>
			<stop  offset="0.4215" style="stop-color:#FFBD95"/>
			<stop  offset="1" style="stop-color:#FF9A67"/>
		</linearGradient>
		<path class="st37" d="M220.2,187.2l-1.9-15.9l-42.1-1.6c0,0-9.3-2.9-11.5-3.3c-3-0.5-8.5,2.5-14.5,4.5c-3.1,1-6,1.6-5.7,2.3
			c0.7,1.6,9.9-1.8,19.3,0.2c1.8,0.4,11.7,2.2,11.7,2.2L220.2,187.2z"/>
		<linearGradient id="SVGID_38_" gradientUnits="userSpaceOnUse" x1="359.0424" y1="252.042" x2="363.9258" y2="252.042">
			<stop  offset="7.662840e-03" style="stop-color:#F17954"/>
			<stop  offset="1" style="stop-color:#FF9A6A"/>
		</linearGradient>
		<path class="st38" d="M361.3,243.7c-0.4,0.2-1.7,5.1-2,6.4c-0.4,1.3-0.1,9.7,0,10.1c0.1,0.4,1.8,0.1,2-0.8c0.2-0.9,0.6-4,0.6-4
			s2.7-3.5,1.9-6.3C362.9,246.3,361.3,243.7,361.3,243.7z"/>
		<g>
			
				<linearGradient id="SVGID_39_" gradientUnits="userSpaceOnUse" x1="9531.3027" y1="-413.8163" x2="9548.5654" y2="-429.1332" gradientTransform="matrix(-0.8754 0.4834 0.4834 0.8754 8841.2168 -4138.043)">
				<stop  offset="0" style="stop-color:#FF9A67"/>
				<stop  offset="0.3738" style="stop-color:#FFAD80"/>
				<stop  offset="0.7186" style="stop-color:#FFB990"/>
				<stop  offset="0.9923" style="stop-color:#FFBD95"/>
			</linearGradient>
			<path class="st39" d="M297.5,102.4c1,11.4-10,21.8-15,22.3c-6,0.6-13.6-8.5-14.7-19.8c-1-11.4,3.5-21.6,12.5-22.2
				C290.1,82,296.5,91,297.5,102.4z"/>
			
				<linearGradient id="SVGID_40_" gradientUnits="userSpaceOnUse" x1="9520.5459" y1="-428.7097" x2="9549.5361" y2="-428.7097" gradientTransform="matrix(-0.8754 0.4834 0.4834 0.8754 8841.2168 -4138.043)">
				<stop  offset="0" style="stop-color:#974F35"/>
				<stop  offset="0.2925" style="stop-color:#934E34"/>
				<stop  offset="0.5764" style="stop-color:#874A2F"/>
				<stop  offset="0.8562" style="stop-color:#744428"/>
				<stop  offset="0.9885" style="stop-color:#684024"/>
			</linearGradient>
			<path class="st40" d="M269,93.2c0,0-1.5-8.2-0.1-9.6c1.3-1.4,11.3-4.7,15.6-4.5c4.9,0.3,13.1,5.9,15.2,9.7
				c2.8,5.2-0.8,18.3-1.4,20.2c-0.5,1.9-3.7,5-3.7,5s0.9-13-1.7-13.7c-2.6-0.8-4.2,5.7-4.2,5.7s0.1-8.6-2.7-12.8
				c-2.2-3.2-9.9,1.5-12,1.9C272.7,95.4,269,93.2,269,93.2z"/>
			<path class="st41" d="M288.5,101.5c0,0-2,8.9-3.8,9.8c-1.7,1-8,3-9.7,3.2c-1.6,0.2-5.3-2.1-5.4-1.8c-0.1,0.4,1.5,12.1,2.5,15.3
				c1,3.2,12.4-0.6,14.9-3.7c4.2-5.3,3.1-22.1,3.1-22.1L288.5,101.5z"/>
			<g>
				<path class="st42" d="M284.9,124.9c0.3-6.1,1.9-12.1,3.1-18.1c0.1-0.6,1-0.5,0.9,0.1c-1.2,6-2.7,12-3.1,18.1
					C285.8,125.6,284.9,125.5,284.9,124.9z"/>
				<path class="st42" d="M272.6,126.7c-0.3-3.2-0.8-6.5-1.3-9.7c-0.1-0.6,0.8-0.8,0.9-0.2c0.5,3.2,0.9,6.4,1.3,9.7
					C273.6,127.1,272.7,127.3,272.6,126.7z"/>
			</g>
			<path class="st42" d="M268.8,83.6c0,0,0.1-0.1,0.1-0.1c1.3,1.3,2.8,2.7,4.1,2.5c2.6-0.5,9.2-4.1,12.2-1.8
				c3,2.3,2.7,13.4,2.7,13.4l-0.1,0c-0.4-1.6-0.9-3.1-1.7-4.3c-2.2-3.2-9.9,1.5-12,1.9c-1.4,0.2-5.2-1.9-5.2-1.9
				S267.5,85.1,268.8,83.6z"/>
			<g>
				
					<linearGradient id="SVGID_41_" gradientUnits="userSpaceOnUse" x1="6030.2783" y1="2733.3887" x2="6025.8579" y2="2730.8232" gradientTransform="matrix(-0.9977 -6.710000e-02 -6.710000e-02 0.9977 6469.7827 -2211.4412)">
					<stop  offset="0" style="stop-color:#FF9A67"/>
					<stop  offset="0.9923" style="stop-color:#FFBD95"/>
				</linearGradient>
				<path class="st43" d="M272.6,103.4c0,0,0.8,2.1,0.6,5.7c-0.2,2.4-1.2,4.8-0.8,5.3s3.5,0.1,3.8-0.3c0.7-0.9-2.4-7.2-0.5-10.6
					C276.7,101.9,273.2,102.9,272.6,103.4z"/>
				<polygon class="st41" points="284.4,101.1 282.9,99.8 276.3,100.5 276.7,102.6 				"/>
				<polygon class="st41" points="266.6,101.9 267.9,100.5 272,100.6 271.8,102.7 				"/>
				<path class="st44" d="M280.4,115.8c0,0-1.4,2.1-3.8,2.8c-2.4,0.6-3.8-2-3.8-2L280.4,115.8z"/>
				<path class="st45" d="M283.9,104.6c0,0-3,0.4-4.1,0.4s-1.9-0.1-1.9-0.1l0.7,0.7l-0.1,0.7C278.5,106.2,281.1,106.3,283.9,104.6z"
					/>
				<path class="st45" d="M272.4,105.8c-0.4-0.1-1.4-0.2-2.5-0.4c-1.1-0.2-1.9-0.7-1.9-0.7l0.5,0.9l-0.1,0.6
					C268.5,106.1,270.1,106.5,272.4,105.8z"/>
			</g>
		</g>
		<rect x="240.1" y="433.3" class="st46" width="47.2" height="1.8"/>
		<linearGradient id="SVGID_42_" gradientUnits="userSpaceOnUse" x1="239.8796" y1="394.722" x2="292.1584" y2="394.722">
			<stop  offset="0" style="stop-color:#ECB365"/>
			<stop  offset="0.2079" style="stop-color:#E9AB5E"/>
			<stop  offset="0.531" style="stop-color:#E1954A"/>
			<stop  offset="0.9269" style="stop-color:#D3712B"/>
			<stop  offset="1" style="stop-color:#D06A24"/>
		</linearGradient>
		<path class="st47" d="M270.2,416.8c0,0-5.3,4.2-8.6,6.2c-3.2,2.1-15.8,1.9-19.8,4.6c-2.9,1.9-1.7,5.7-1.7,5.7h47.2
			c0,0,0.9-5.7,0-14c-0.4-3.4,4.8-63.1,4.8-63.1l-24.1-0.1L270.2,416.8z"/>
		<linearGradient id="SVGID_43_" gradientUnits="userSpaceOnUse" x1="294.8243" y1="377.5752" x2="372.5042" y2="407.1319">
			<stop  offset="0" style="stop-color:#ECB365"/>
			<stop  offset="0.1346" style="stop-color:#E8A85B"/>
			<stop  offset="0.7093" style="stop-color:#D77B33"/>
			<stop  offset="1" style="stop-color:#D06A24"/>
		</linearGradient>
		<path class="st48" d="M345.4,355.5c0,0.2,9.1,58.8,10,63.3c0.5,2.4,9.2,12.7,9.4,14.2c0.1,0.8-0.1,2.1-0.1,2.1h-27.2
			c0,0-0.1-1.7,0-2.2c0.8-3.3,2.5-9.9,2.8-11.9c0.4-2.5-20.8-65.5-20.8-65.5H345.4z"/>
		
			<rect x="337.4" y="435.1" transform="matrix(-1 -1.224647e-16 1.224647e-16 -1 702.0305 871.9096)" class="st46" width="27.2" height="1.8"/>
		<linearGradient id="SVGID_44_" gradientUnits="userSpaceOnUse" x1="337.1079" y1="432.1144" x2="364.9511" y2="432.1144">
			<stop  offset="0" style="stop-color:#ECB365"/>
			<stop  offset="0.2107" style="stop-color:#E39D54"/>
			<stop  offset="0.4948" style="stop-color:#DA8642"/>
			<stop  offset="0.7639" style="stop-color:#D57937"/>
			<stop  offset="1" style="stop-color:#D37433"/>
		</linearGradient>
		<path class="st49" d="M337.4,435.1c0,0-1-3.4,0.6-4.6c2.4-1.9,23.5-1.2,24.8-0.5c1.9,1,2.7,4,1.8,5.2H337.4z"/>
		<linearGradient id="SVGID_45_" gradientUnits="userSpaceOnUse" x1="337.5427" y1="229.6512" x2="372.9737" y2="229.6512">
			<stop  offset="0" style="stop-color:#FF9A6A"/>
			<stop  offset="0.9923" style="stop-color:#F17954"/>
		</linearGradient>
		<path class="st50" d="M371.4,251.8c-1.5-4.5-3.8-8.1-3.8-8.1l-17.9-47.3l-12.1,7.6l23.4,40.7c0,0-0.1,5.4,0.4,7.9
			c0.5,2.5,2.5,6.1,2,7.1c-0.5,1-3.4,0.7-3,1.9c0.4,1.2,10.2,2.3,12.4,0.3C373.3,261.4,373,256.6,371.4,251.8z"/>
		<linearGradient id="SVGID_46_" gradientUnits="userSpaceOnUse" x1="154.5295" y1="172.8745" x2="172.7492" y2="172.8745">
			<stop  offset="0" style="stop-color:#FF9A67"/>
			<stop  offset="0.9923" style="stop-color:#FFBD95"/>
		</linearGradient>
		<path class="st51" d="M174.3,171c-0.8-1.1-4.6-1.3-6.5-0.9c-1.9,0.3-5.5,1-7.2,1.2c-1.7,0.2-3.7,0.1-3.8,0.8
			c-0.1,0.7,1.4,2,3.3,2.1c1.9,0,3.5-0.1,4.8,0c1.3,0.1,5.5,2.4,8.2,1.3C175.6,174.4,175.2,172.3,174.3,171z"/>
		<path class="st52" d="M326.4,247.4l1.5-0.1c0-0.6,0-1.4,0-2.3l-1.6,0.1l-0.2-2.7l1.7-0.1c0-0.1,0-0.2,0-0.3l-1.7,0.1l-0.2-2.8
			l1.7-0.1c-0.1-0.7-0.1-1.5-0.2-2.3l-1.7,0.1l-0.2-2.7l1.7-0.1c0-0.1,0-0.2,0-0.3l-1.7,0.1l-0.2-2.8l1.7-0.1
			c-0.1-0.7-0.1-1.5-0.2-2.3l-1.6,0.1l-0.2-2.7l1.6-0.1c0-0.1,0-0.2,0-0.3l-1.6,0.1l-0.2-2.8l1.5-0.1c-0.1-0.7-0.1-1.5-0.2-2.3
			l-1.4,0.1l-0.2-2.7l1.4-0.1c0-0.1,0-0.2,0-0.3l-1.4,0.1l-0.2-2.8l1.3-0.1c-0.1-0.8-0.2-1.5-0.2-2.2l-1.2,0.1l-0.2-2.7l1.1-0.1
			c0-0.1,0-0.2,0-0.3l-1.1,0.1l-0.2-2.8l1-0.1c-0.1-0.8-0.2-1.5-0.2-2.2l-1,0.1l-0.2-2.7l0.9-0.1c0-0.1,0-0.2,0-0.3L323,202
			l-0.2-2.8l0.8-0.1c-0.1-0.8-0.2-1.5-0.3-2.2l-0.7,0.1l-0.2-2.7l0.6,0c0-0.1,0-0.2,0-0.3l-0.6,0l-0.2-2.8l0.4,0
			c-0.1-0.8-0.2-1.6-0.3-2.2l-0.3,0l-0.2-2.7l0.2,0c0-0.1,0-0.2,0-0.3l-0.2,0l-0.2-2.8l0.1,0c-0.1-0.8-0.2-1.6-0.2-2.3l0,0l-0.2-2.7
			l0.1,0c0-0.1,0-0.2,0-0.3l-0.1,0l-0.2-2.8l2.7-0.2l0.2,2.8l-1.3,0.1l0.2,0.3l1.2-0.1l0.2,2.5l1.3,2.3l2-0.1l0.2,2.8l-0.6,0
			l0.2,0.3l0.5,0l0.1,1l2.6,4.6l-0.1-0.8l2.7-0.2l0.2,2.8l-1.7,0.1l0.2,0.3l1.6-0.1l0.2,2.7l-0.3,0l1.2,2.2l2.3-0.2l0.2,2.8l-1,0.1
			l0.2,0.3l0.8-0.1l0.1,1.8l0.5,0.9l1.7-1l-0.1-1.9l2.7-0.2l0.1,0.7l0.3-0.2l0-0.5l1.2-0.1l0.7-0.4l-1.9,0.1l-0.2-2.8l2.8-0.2
			l0.2,2.4l2.2-1.2l-0.1-1.3l2.7-0.2l0,0.1l0.3-0.2c0,0-0.3-0.8-0.8-2.2l-2.3,0.2l-0.2-2.7l1.6-0.1c0-0.1-0.1-0.2-0.1-0.3l-1.5,0.1
			l-0.2-2.8l0.6,0c-1.1-2.8-2.4-6.3-3.8-10.1l-2.6,0.2l-0.2-2.7l1.8-0.1c0-0.1-0.1-0.2-0.1-0.3l-1.7,0.1l-0.2-2.8l0.9-0.1
			c-0.3-0.7-0.6-1.5-0.9-2.2l-0.2,0l0-0.7c-0.1-0.3-0.3-0.7-0.4-1l0.1,1.7l-2.7,0.2l-0.2-2.7l2.4-0.2c0-0.1-0.1-0.2-0.1-0.3
			l-2.3,0.2l-0.2-2.8l1.4-0.1c-0.3-0.7-0.6-1.5-0.9-2.2l-0.7,0.1l-0.2-2.2c-0.9-2.3-1.9-4.6-2.8-6.8l0.1,1.1l-2.8,0.2l-0.2-2.7
			l2.3-0.2c0-0.1-0.1-0.2-0.1-0.3l-2.2,0.2l-0.2-2.8l1.2-0.1c-0.3-0.7-0.6-1.5-0.9-2.2l-0.4,0l-0.1-1.3c-0.1-0.3-0.3-0.6-0.4-0.9
			l0.2,2.2l-2.7,0.2l-0.2-2.7l2.5-0.2c0-0.1-0.1-0.2-0.1-0.3l-2.4,0.2l-0.2-2.8l1.4-0.1c-0.4-0.8-0.7-1.5-1-2.2l-0.5,0l-0.1-1.3
			c-1.6-3.2-2.9-5.5-3.8-6.5l-1.7,0.1l-0.1-1c-0.1,0-0.2-0.1-0.3-0.1l0.1,1.1l-2.7,0.2l-0.1-2c-0.7-0.1-1.5-0.3-2.3-0.4l0.2,2.6
			l-2.8,0.2l-0.2-2.7l2.4-0.2c-0.5-0.1-0.9-0.1-1.4-0.2l-1,0.1l0-0.2c-0.1,0-0.2,0-0.3,0l0,0.3l-2.7,0.2l-0.1-0.9
			c-0.8-0.1-1.6-0.2-2.3-0.3l0.1,1.3l-2.8,0.2l-0.1-1.9c-0.1,0-0.2,0-0.3,0l0.1,2l-2.7,0.2l-0.2-2.4c-0.1,0-0.2,0-0.2,0
			s-0.8,3.3-1.7,7.9l0.2,0l0.2,2.8l-1,0.1c0,0.1,0,0.2-0.1,0.3l1-0.1l0.2,2.7l-1.7,0.1c-0.1,0.8-0.2,1.5-0.4,2.3l2.2-0.2l0.2,2.8
			l-2.8,0.2l0-0.1c-0.1,0.6-0.1,1.2-0.2,1.7l0.1,1.4l-0.2,0c-0.1,0.8-0.1,1.5-0.2,2.3l0.6,0l0.2,2.8l-0.8,0.1c0,0.1,0,0.2,0,0.3
			l0.8-0.1l0.2,2.7l-1,0.1c0,0.7,0,1.5,0.1,2.3l1.1-0.1l0.2,2.8l-1.2,0.1c0,0.1,0,0.2,0,0.3l1.2-0.1l0.2,2.7l-1.3,0.1
			c0,0.7,0.1,1.5,0.1,2.3l1.4-0.1l0.2,2.8l-1.4,0.1c0,0.1,0,0.2,0,0.3l1.5-0.1l0.2,2.7l-1.5,0.1c0,0.7,0.1,1.5,0.1,2.3l1.6-0.1
			l0.2,2.8l-1.6,0.1c0,0.1,0,0.2,0,0.3l1.6-0.1l0.2,2.7l-1.7,0.1c0,0.7,0.1,1.5,0.1,2.3l1.7-0.1l0.2,2.8l-1.8,0.1c0,0.1,0,0.2,0,0.3
			l1.8-0.1l0.2,2.7l-1.8,0.1c0,0.7,0.1,1.5,0.1,2.3l1.9-0.1l0.2,2.8l-1.9,0.1c0,0.1,0,0.2,0,0.3l1.9-0.1l0.2,2.7l-1.9,0.1
			c0,0.8,0.1,1.5,0.1,2.3l2-0.1l0.2,2.8l-2,0.1c0,0.1,0,0.2,0,0.3l2-0.1l0.2,2.7l-2,0.2c0,0.8,0.1,1.5,0.2,2.3l2-0.2l0.2,2.8
			l-2.1,0.2c0,0.1,0,0.2,0,0.3l2.1-0.2l0.2,2.7l-2.1,0.2c0.1,0.8,0.1,1.5,0.2,2.3l2.1-0.2l0.2,2.8l-2.1,0.2c0,0.1,0,0.2,0,0.3
			l2.1-0.2l0.2,2.7l-2.1,0.2c0.1,0.8,0.1,1.5,0.2,2.3l2.1-0.2l0.2,2.8l-2.1,0.2c0,0.1,0,0.2,0,0.3l2.1-0.2l0.2,2.7l-2.1,0.2
			c0.1,0.8,0.1,1.5,0.2,2.3l2.1-0.2l0.2,2.8l-2.1,0.2c0,0.1,0,0.2,0,0.3l2.1-0.2l0.2,2.7l-2,0.2c0.1,0.8,0.1,1.5,0.2,2.3l2-0.1
			l0.2,2.8l-1.9,0.1c0,0.1,0,0.2,0,0.3l1.9-0.1l0.2,2.7l-1.8,0.1c0.1,1.1,0.3,1.9,0.4,2.2l1.6-0.1l0.1,0.7c0.1,0,0.2,0,0.3,0
			l-0.1-0.7l2.8-0.2l0.1,1.2c0.7,0.1,1.5,0.1,2.3,0.2l-0.1-1.6l2.7-0.2l0.1,1.9c0.1,0,0.2,0,0.3,0l-0.1-1.9l2.8-0.2l0.2,2.2
			c0.8,0,1.5,0,2.3,0l-0.2-2.4l2.7-0.2l0.2,2.6c0.1,0,0.2,0,0.3,0l-0.2-2.6l2.8-0.2l0.2,2.7c0.9-0.1,1.7-0.2,2.2-0.4L326.4,247.4z
			 M338.3,189.9l2.7-0.2l0.2,2.8l-2.7,0.2L338.3,189.9z M338.5,193.1l2.7-0.2l0.2,2.7l-2.7,0.2L338.5,193.1z M339.1,200.8l-0.2-2.8
			l2.7-0.2l0.2,2.8L339.1,200.8z M344.5,195.3l-2.8,0.2l-0.2-2.7l2.8-0.2L344.5,195.3z M344.3,192.3l-2.8,0.2l-0.2-2.8l2.8-0.2
			L344.3,192.3z M343.9,187.3l-2.8,0.2l-0.2-2.7l2.8-0.2L343.9,187.3z M343.5,181.5l0.2,2.8l-2.8,0.2l-0.2-2.8L343.5,181.5z
			 M340.8,187.5l-2.7,0.2l-0.2-2.7l2.7-0.2L340.8,187.5z M340.4,181.7l0.2,2.8l-2.7,0.2l-0.2-2.8L340.4,181.7z M340.2,179.5
			l-2.7,0.2l-0.2-2.7l2.7-0.2L340.2,179.5z M339.8,173.7l0.2,2.8l-2.7,0.2l-0.2-2.8L339.8,173.7z M323.4,237.2l-2.8,0.2l-0.2-2.7
			l2.8-0.2L323.4,237.2z M323,231.5l0.2,2.8l-2.8,0.2l-0.2-2.8L323,231.5z M322.8,229.2l-2.8,0.2l-0.2-2.7l2.8-0.2L322.8,229.2z
			 M322.4,223.4l0.2,2.8l-2.8,0.2l-0.2-2.8L322.4,223.4z M322.2,221.2l-2.8,0.2l-0.2-2.7l2.8-0.2L322.2,221.2z M321.8,215.4l0.2,2.8
			l-2.8,0.2l-0.2-2.8L321.8,215.4z M321.6,213.2l-2.8,0.2l-0.2-2.7l2.8-0.2L321.6,213.2z M321.2,207.4l0.2,2.8l-2.8,0.2l-0.2-2.8
			L321.2,207.4z M305.2,144l0.2,2.8l-2.7,0.2l-0.2-2.8L305.2,144z M302.4,141.9l-0.2-2.7l2.7-0.2l0.2,2.7L302.4,141.9z M305.5,147.1
			l0.2,2.7L303,150l-0.2-2.7L305.5,147.1z M305.8,152l0.2,2.8l-2.7,0.2l-0.2-2.8L305.8,152z M306.1,155.1l0.2,2.7l-2.7,0.2l-0.2-2.7
			L306.1,155.1z M306.4,160l0.2,2.8L304,163l-0.2-2.8L306.4,160z M306.7,163.1l0.2,2.7l-2.7,0.2l-0.2-2.7L306.7,163.1z M307,168.1
			l0.2,2.8l-2.7,0.2l-0.2-2.8L307,168.1z M318,202.3l-0.2-2.8l2.8-0.2l0.2,2.8L318,202.3z M320.8,202.5l0.2,2.7l-2.8,0.2l-0.2-2.7
			L320.8,202.5z M315.9,178.6l0.2,2.7l-2.7,0.2l-0.2-2.7L315.9,178.6z M313.2,178.5l-0.2-2.8l2.7-0.2l0.2,2.8L313.2,178.5z
			 M316.3,183.5l0.2,2.8l-2.7,0.2l-0.2-2.8L316.3,183.5z M317,189.3l-0.2-2.7l2.8-0.2l0.2,2.7L317,189.3z M320,191.3l0.2,2.8
			l-2.8,0.2l-0.2-2.8L320,191.3z M316.8,186.3l-0.2-2.8l2.8-0.2l0.2,2.8L316.8,186.3z M316.4,181.2l-0.2-2.7l2.8-0.2l0.2,2.7
			L316.4,181.2z M316.5,186.6l0.2,2.7l-2.7,0.2l-0.2-2.7L316.5,186.6z M316.9,191.6l0.2,2.8l-2.7,0.2l-0.2-2.8L316.9,191.6z
			 M317.1,194.7l0.2,2.7l-2.7,0.2l-0.2-2.7L317.1,194.7z M317.5,199.6l0.2,2.8l-2.7,0.2l-0.2-2.8L317.5,199.6z M317.6,197.3
			l-0.2-2.7l2.8-0.2l0.2,2.7L317.6,197.3z M320.4,167.1l2.7-0.2l0.2,2.8l-2.7,0.2L320.4,167.1z M320.3,164.8l-0.2-2.7l2.7-0.2
			l0.2,2.7L320.3,164.8z M320,161.8l-0.2-2.8l2.7-0.2l0.2,2.8L320,161.8z M319.7,156.8l-0.2-2.7l2.7-0.2l0.2,2.7L319.7,156.8z
			 M319.4,153.8l-0.2-2.8l2.7-0.2l0.2,2.8L319.4,153.8z M319.1,148.7l-0.2-2.7l2.7-0.2l0.2,2.7L319.1,148.7z M318.8,145.8l-0.2-2.8
			l2.7-0.2l0.2,2.8L318.8,145.8z M318.8,175.3l0.2,2.8l-2.8,0.2l-0.2-2.8L318.8,175.3z M315.8,173.2l-0.2-2.7l2.8-0.2l0.2,2.7
			L315.8,173.2z M315.6,170.2l-0.2-2.8l2.8-0.2l0.2,2.8L315.6,170.2z M315.5,173.2l-2.7,0.2l-0.2-2.7l2.7-0.2L315.5,173.2z
			 M311.4,183.9l0.2,2.8l-2.8,0.2l-0.2-2.8L311.4,183.9z M308.4,181.8l-0.2-2.7l2.8-0.2l0.2,2.7L308.4,181.8z M311.6,187l0.2,2.7
			l-2.8,0.2l-0.2-2.7L311.6,187z M312,191.9l0.2,2.8l-2.8,0.2l-0.2-2.8L312,191.9z M312.2,195l0.2,2.7l-2.8,0.2l-0.2-2.7L312.2,195z
			 M312.6,200l0.2,2.8l-2.8,0.2l-0.2-2.8L312.6,200z M312.8,203.1l0.2,2.7l-2.8,0.2l-0.2-2.7L312.8,203.1z M312.6,170.5l-0.2-2.8
			l2.7-0.2l0.2,2.8L312.6,170.5z M312.2,165.4l-0.2-2.7l2.7-0.2l0.2,2.7L312.2,165.4z M312,162.4l-0.2-2.8l2.7-0.2l0.2,2.8
			L312,162.4z M311.6,157.4l-0.2-2.7l2.7-0.2l0.2,2.7L311.6,157.4z M311.4,154.4l-0.2-2.8l2.7-0.2l0.2,2.8L311.4,154.4z M311,149.3
			l-0.2-2.7l2.7-0.2l0.2,2.7L311,149.3z M310.8,146.4l-0.2-2.8l2.7-0.2l0.2,2.8L310.8,146.4z M310.8,175.9l0.2,2.8l-2.8,0.2
			l-0.2-2.8L310.8,175.9z M307.8,173.8l-0.2-2.7l2.8-0.2l0.2,2.7L307.8,173.8z M307.6,170.8l-0.2-2.8l2.8-0.2l0.2,2.8L307.6,170.8z
			 M307.2,165.8l-0.2-2.7l2.8-0.2l0.2,2.7L307.2,165.8z M307.3,171.2l0.2,2.7l-2.7,0.2l-0.2-2.7L307.3,171.2z M307.6,176.1l0.2,2.8
			l-2.7,0.2l-0.2-2.8L307.6,176.1z M307.9,179.2l0.2,2.7l-2.7,0.2l-0.2-2.7L307.9,179.2z M308.2,184.1l0.2,2.8l-2.7,0.2l-0.2-2.8
			L308.2,184.1z M308.5,187.2l0.2,2.7l-2.7,0.2l-0.2-2.7L308.5,187.2z M308.8,192.2l0.2,2.8l-2.7,0.2l-0.2-2.8L308.8,192.2z
			 M309.1,195.3l0.2,2.7l-2.7,0.2l-0.2-2.7L309.1,195.3z M309.4,200.2l0.2,2.8l-2.7,0.2l-0.2-2.8L309.4,200.2z M309.7,203.3l0.2,2.7
			l-2.7,0.2l-0.2-2.7L309.7,203.3z M310,208.2l0.2,2.8l-2.7,0.2l-0.2-2.8L310,208.2z M310.3,211.3l0.2,2.7l-2.7,0.2l-0.2-2.7
			L310.3,211.3z M310.4,208.2l2.8-0.2l0.2,2.8l-2.8,0.2L310.4,208.2z M313.4,211.1l0.2,2.7l-2.8,0.2l-0.2-2.7L313.4,211.1z
			 M313.8,216l0.2,2.8l-2.8,0.2l-0.2-2.8L313.8,216z M314,219.1l0.2,2.7l-2.8,0.2l-0.2-2.7L314,219.1z M314.4,224l0.2,2.8l-2.8,0.2
			l-0.2-2.8L314.4,224z M314.6,227.2l0.2,2.7L312,230l-0.2-2.7L314.6,227.2z M315,232.1l0.2,2.8l-2.8,0.2l-0.2-2.8L315,232.1z
			 M315.2,235.2l0.2,2.7l-2.8,0.2l-0.2-2.7L315.2,235.2z M315.2,205.6l-0.2-2.7l2.7-0.2l0.2,2.7L315.2,205.6z M318.1,207.6l0.2,2.8
			l-2.7,0.2l-0.2-2.8L318.1,207.6z M318.3,210.7l0.2,2.7l-2.7,0.2l-0.2-2.7L318.3,210.7z M320.9,172.8l-0.2-2.7l2.7-0.2l0.2,2.7
			L320.9,172.8z M328.5,166.5l2.7-0.2l0.2,2.8l-2.7,0.2L328.5,166.5z M328.7,169.6l2.7-0.2l0.2,2.7l-2.7,0.2L328.7,169.6z
			 M329.1,174.5l2.7-0.2l0.2,2.8l-2.7,0.2L329.1,174.5z M329.3,177.6l2.7-0.2l0.2,2.7l-2.7,0.2L329.3,177.6z M329.7,182.5l2.7-0.2
			l0.2,2.8l-2.7,0.2L329.7,182.5z M330.1,188.3l-0.2-2.7l2.7-0.2l0.2,2.7L330.1,188.3z M336.5,195.9l-2.8,0.2l-0.2-2.7l2.8-0.2
			L336.5,195.9z M336.3,192.9l-2.8,0.2l-0.2-2.8l2.8-0.2L336.3,192.9z M335.9,187.9l-2.8,0.2l-0.2-2.7l2.8-0.2L335.9,187.9z
			 M335.6,184.9l-2.8,0.2l-0.2-2.8l2.8-0.2L335.6,184.9z M335.3,179.8l-2.8,0.2l-0.2-2.7l2.8-0.2L335.3,179.8z M335,176.8l-2.8,0.2
			l-0.2-2.8l2.8-0.2L335,176.8z M334.7,171.8l-2.8,0.2l-0.2-2.7l2.8-0.2L334.7,171.8z M334.4,168.8l-2.8,0.2l-0.2-2.8l2.8-0.2
			L334.4,168.8z M334.1,163.8l-2.8,0.2l-0.2-2.7l2.8-0.2L334.1,163.8z M333.6,158l0.2,2.8l-2.8,0.2l-0.2-2.8L333.6,158z M331,164
			l-2.7,0.2l-0.2-2.7l2.7-0.2L331,164z M330.5,158.2l0.2,2.8l-2.7,0.2l-0.2-2.8L330.5,158.2z M330.4,156l-2.7,0.2l-0.2-2.7l2.7-0.2
			L330.4,156z M329.9,150.2l0.2,2.8l-2.7,0.2l-0.2-2.8L329.9,150.2z M327.2,180.4l-2.8,0.2l-0.2-2.7l2.8-0.2L327.2,180.4z
			 M326.8,174.7l0.2,2.8l-2.8,0.2l-0.2-2.8L326.8,174.7z M326.6,172.4l-2.8,0.2l-0.2-2.7l2.8-0.2L326.6,172.4z M326.4,169.4
			l-2.8,0.2l-0.2-2.8l2.8-0.2L326.4,169.4z M326,164.4l-2.8,0.2l-0.2-2.7l2.8-0.2L326,164.4z M325.8,161.4l-2.8,0.2l-0.2-2.8
			l2.8-0.2L325.8,161.4z M325.4,156.3l-2.8,0.2l-0.2-2.7l2.8-0.2L325.4,156.3z M325.2,153.4l-2.8,0.2l-0.2-2.8l2.8-0.2L325.2,153.4z
			 M324.8,148.3l-2.8,0.2l-0.2-2.7l2.8-0.2L324.8,148.3z M324.6,145.3l-2.8,0.2l-0.2-2.8l2.8-0.2L324.6,145.3z M324.2,140.3
			l-2.8,0.2l-0.2-2.7l2.8-0.2L324.2,140.3z M323.8,134.5l0.2,2.8l-2.8,0.2l-0.2-2.8L323.8,134.5z M321.1,140.5l-2.7,0.2l-0.2-2.7
			l2.7-0.2L321.1,140.5z M320.7,134.7l0.2,2.8l-2.7,0.2l-0.2-2.8L320.7,134.7z M318,165l-2.8,0.2l-0.2-2.7l2.8-0.2L318,165z
			 M317.8,162l-2.8,0.2l-0.2-2.8l2.8-0.2L317.8,162z M317.4,156.9l-2.8,0.2l-0.2-2.7l2.8-0.2L317.4,156.9z M317.2,154l-2.8,0.2
			l-0.2-2.8l2.8-0.2L317.2,154z M316.8,148.9l-2.8,0.2l-0.2-2.7l2.8-0.2L316.8,148.9z M316.6,145.9l-2.8,0.2l-0.2-2.8l2.8-0.2
			L316.6,145.9z M316.2,140.9l-2.8,0.2l-0.2-2.7l2.8-0.2L316.2,140.9z M315.8,135.1l0.2,2.8l-2.8,0.2l-0.2-2.8L315.8,135.1z
			 M313.1,141.1l-2.7,0.2l-0.2-2.7l2.7-0.2L313.1,141.1z M312.7,135.3l0.2,2.8l-2.7,0.2l-0.2-2.8L312.7,135.3z M312.3,130.4l0.2,2.7
			l-2.7,0.2l-0.2-2.7L312.3,130.4z M309.8,162.6l-2.8,0.2l-0.2-2.8l2.8-0.2L309.8,162.6z M309.4,157.5l-2.8,0.2l-0.2-2.7l2.8-0.2
			L309.4,157.5z M309.2,154.6l-2.8,0.2l-0.2-2.8l2.8-0.2L309.2,154.6z M308.8,149.5l-2.8,0.2l-0.2-2.7l2.8-0.2L308.8,149.5z
			 M308.6,146.5l-2.8,0.2l-0.2-2.8l2.8-0.2L308.6,146.5z M308.2,141.5l-2.8,0.2l-0.2-2.7l2.8-0.2L308.2,141.5z M308,138.5l-2.8,0.2
			l-0.2-2.8l2.8-0.2L308,138.5z M307.4,130.8l0.2,2.7l-2.8,0.2l-0.2-2.7L307.4,130.8z M304.6,135.9l0.2,2.8l-2.7,0.2l-0.2-2.8
			L304.6,135.9z M304.3,131l0.2,2.7l-2.7,0.2l-0.2-2.7L304.3,131z M298,150.3l-0.2-2.7l2.8-0.2l0.2,2.7L298,150.3z M298.1,152.6
			l2.8-0.2l0.2,2.8l-2.8,0.2L298.1,152.6z M298.6,158.4l-0.2-2.7l2.8-0.2l0.2,2.7L298.6,158.4z M298.7,160.6l2.8-0.2l0.2,2.8
			l-2.8,0.2L298.7,160.6z M299.2,166.4l-0.2-2.7l2.8-0.2l0.2,2.7L299.2,166.4z M299.3,168.6l2.8-0.2l0.2,2.8l-2.8,0.2L299.3,168.6z
			 M299.8,174.4l-0.2-2.7l2.8-0.2l0.2,2.7L299.8,174.4z M299.9,176.7l2.8-0.2l0.2,2.8l-2.8,0.2L299.9,176.7z M300.4,182.4l-0.2-2.7
			l2.8-0.2l0.2,2.7L300.4,182.4z M300.5,184.7l2.8-0.2l0.2,2.8l-2.8,0.2L300.5,184.7z M301,190.5l-0.2-2.7l2.8-0.2l0.2,2.7
			L301,190.5z M301.1,192.7l2.8-0.2l0.2,2.8l-2.8,0.2L301.1,192.7z M301.6,198.5l-0.2-2.7l2.8-0.2l0.2,2.7L301.6,198.5z
			 M301.7,200.8l2.8-0.2l0.2,2.8l-2.8,0.2L301.7,200.8z M302.2,206.5l-0.2-2.7l2.8-0.2l0.2,2.7L302.2,206.5z M302.3,208.8l2.8-0.2
			l0.2,2.8l-2.8,0.2L302.3,208.8z M302.8,214.6l-0.2-2.7l2.8-0.2l0.2,2.7L302.8,214.6z M302.9,216.8l2.8-0.2l0.2,2.8l-2.8,0.2
			L302.9,216.8z M303.4,222.6l-0.2-2.7l2.8-0.2l0.2,2.7L303.4,222.6z M303.5,224.8l2.8-0.2l0.2,2.8l-2.8,0.2L303.5,224.8z
			 M304,230.6l-0.2-2.7l2.8-0.2l0.2,2.7L304,230.6z M304.1,232.9l2.8-0.2l0.2,2.8l-2.8,0.2L304.1,232.9z M304.6,238.7l-0.2-2.7
			l2.8-0.2l0.2,2.7L304.6,238.7z M304.7,240.9l2.8-0.2l0.2,2.8l-2.8,0.2L304.7,240.9z M305.2,246.7L305,244l2.8-0.2l0.2,2.7
			L305.2,246.7z M308,216.4l2.7-0.2l0.2,2.8l-2.7,0.2L308,216.4z M308.2,219.6l2.7-0.2l0.2,2.7l-2.7,0.2L308.2,219.6z M308.6,224.5
			l2.7-0.2l0.2,2.8l-2.7,0.2L308.6,224.5z M308.8,227.6l2.7-0.2l0.2,2.7l-2.7,0.2L308.8,227.6z M309.2,232.5l2.7-0.2l0.2,2.8
			l-2.7,0.2L309.2,232.5z M309.4,235.6l2.7-0.2l0.2,2.7l-2.7,0.2L309.4,235.6z M309.8,240.5l2.7-0.2l0.2,2.8l-2.7,0.2L309.8,240.5z
			 M310.2,246.3l-0.2-2.7l2.7-0.2l0.2,2.7L310.2,246.3z M312.8,240.3l2.8-0.2l0.2,2.8l-2.8,0.2L312.8,240.3z M313.2,246.1l-0.2-2.7
			l2.8-0.2l0.2,2.7L313.2,246.1z M316,215.8l2.7-0.2l0.2,2.8l-2.7,0.2L316,215.8z M316.2,219l2.7-0.2l0.2,2.7l-2.7,0.2L316.2,219z
			 M316.6,223.9l2.7-0.2l0.2,2.8l-2.7,0.2L316.6,223.9z M316.8,227l2.7-0.2l0.2,2.7l-2.7,0.2L316.8,227z M317.2,231.9l2.7-0.2
			l0.2,2.8l-2.7,0.2L317.2,231.9z M317.4,235l2.7-0.2l0.2,2.7l-2.7,0.2L317.4,235z M317.8,239.9l2.7-0.2l0.2,2.8l-2.7,0.2
			L317.8,239.9z M318.2,245.7L318,243l2.7-0.2l0.2,2.7L318.2,245.7z M320.8,239.7l2.8-0.2l0.2,2.8l-2.8,0.2L320.8,239.7z
			 M321.2,245.5l-0.2-2.7l2.8-0.2l0.2,2.7L321.2,245.5z"/>
		<path class="st52" d="M273.7,250.9l-0.5,0l0-3l0.2,0c0-0.1,0-0.2,0-0.4l-0.1,0l0-1c-0.5-4.9-1.4-13.2-2.4-22.9l-3.1,0l0-3l2.8,0
			c0-0.1,0-0.2,0-0.4l-2.8,0l0-3.2l2.4,0c-0.1-0.8-0.2-1.7-0.3-2.6l-2.1,0l0-3l1.8,0c0-0.1,0-0.2,0-0.4l-1.8,0l0-3.2l1.4,0
			c-0.1-0.8-0.2-1.7-0.3-2.6l-1.2,0l0-3l0.8,0c0-0.1,0-0.2,0-0.4l-0.8,0l0-3.2l0.5,0c-0.1-0.9-0.2-1.7-0.2-2.6l-0.2,0l0-2
			c-0.1-1.2-0.2-2.4-0.3-3.6l0,2.2l-3,0l0-3.2l2.9,0c-0.1-0.9-0.2-1.7-0.2-2.6l-2.7,0l0-3l2.4,0c0-0.1,0-0.2,0-0.4l-2.3,0l0-3.2l2,0
			c-0.1-0.9-0.1-1.7-0.2-2.6l-1.8,0l0-3l1.5,0c0-0.1,0-0.2,0-0.4l-1.5,0l0-3.2l1.2,0c-0.1-0.9-0.1-1.7-0.2-2.6l-1,0l0-3l0.7,0
			c0-0.1,0-0.2,0-0.4l-0.7,0l0-3.2l0.4,0c-0.1-0.9-0.1-1.7-0.2-2.6l-0.2,0l0-3l0,0c0-0.1,0-0.2,0-0.4l0,0l0-0.5
			c-0.1-1.6-0.1-2.9-0.1-3.9c0-0.8,0.1-1.6,0.1-2.3l0-2l0.2,0c0-0.1,0-0.2,0-0.4l-0.2,0l0-3.2l0.7,0c0.2-0.9,0.3-1.7,0.5-2.5l-1.2,0
			l0-3l2,0c0-0.1,0.1-0.2,0.1-0.4l-2.1,0l0-3.2l3,0l0,0.3c0.4-1,0.7-2,1.1-2.8l-0.7,0l0-3l2,0c0.1-0.1,0.1-0.3,0.2-0.4l-2.2,0l0-1
			c-0.1,0-0.2,0-0.4,0l0,1l-3,0l0-0.9c-0.8,0-1.7,0.1-2.6,0.1l0,0.7l-3.2,0l0-0.4c-0.1,0-0.2,0-0.4,0l0,0.4l-2.5,0
			c-0.6,0.1-1.2,0.3-1.6,0.4c-0.4,0.1-0.9,0.4-1.5,0.9l0,2.1l-2.5,0c-0.8,0.7-1.7,1.6-2.7,2.5l1.7,0l0,3.2l-3,0l0-1.8
			c-0.8,0.8-1.7,1.7-2.6,2.6l0,2.6l-2.5,0c-0.8,0.8-1.6,1.7-2.4,2.5l1.4,0l0,3.2l-3,0l0-1.5c-0.9,0.9-1.7,1.8-2.6,2.7l0,2.1l-1.9,0
			c-0.8,0.8-1.6,1.7-2.4,2.5l0.7,0l0,3.2l-3,0l0-0.6c-0.9,0.9-1.7,1.9-2.6,2.8l0,1.2l-1.1,0c-0.9,0.9-1.7,1.8-2.5,2.7l0,3l-2.6,0
			c-0.1,0.1-0.2,0.2-0.3,0.4l3,0l0,3l-3,0l0-3c-0.9,1-1.8,2-2.6,2.9l0,0.1l-0.1,0c-0.9,1-1.7,1.8-2.3,2.5l2.3,0l0,3.2l-3.2,0l0-2.2
			c-0.1,0.2-0.3,0.3-0.4,0.4l0,1.3l0.4,0.8l3.1,0l0,3l-1.5,0l1.3,2.6l0.1,0l0,0.3l2.5,4.9l0-1.6l3,0l0,3l-2.3,0l0.8,1.5l1.9-1.5l0-3
			l3.2,0l0,0.4l2.6-2.1l0-1.9l2.3,0l3.2-2.5l-2.1,0l0-3l3.2,0l0,2.1l2.6-2.1l0,0l0.1,0l0.5-0.4l-0.5,0l0-3.2l3,0l0,1.1l0.4-0.3
			l0-0.8l1,0l4.7-3.8l0-1.7l2.1,0l0.5-0.4l-2.6,0l0-3.2l3,0l0,2.8l0.4-0.3l0-2.5l3.1,0l0,0c0,0,0,0,0,0l0,0l0,0.3
			c0.2,2.1,1.4,13.9,2.5,27l2.9,0l0,3.2l-2.6,0c0,0.1,0,0.2,0,0.4l2.6,0l0,3l-2.3,0c0.1,0.9,0.1,1.7,0.2,2.6l2.1,0l0,3.2l-1.8,0
			c0,0.1,0,0.2,0,0.4l1.8,0l0,3l-1.6,0c0.1,0.9,0.1,1.7,0.2,2.6l1.4,0l0,3.2l-1.2,0c0,0.1,0,0.2,0,0.4l1.2,0l0,3l-1,0
			c0,0.1,0,0.2,0,0.3c0,0.8,0.1,1.5,0.1,2.3l0.9,0l0,3.2l-0.8,0c0,0.1,0,0.2,0,0.4l0.8,0l0,3l-0.8,0c0,0.9,0,1.7,0,2.6l0.8,0l0,3.2
			l-0.8,0c0,0.1,0,0.2,0,0.4l0.8,0l0,3l-0.9,0c0,0.9,0,1.7-0.1,2.6l0.9,0l0,3.2l-1,0c0,0.1,0,0.2,0,0.4l1,0l0,3l-1,0
			c0,0.9,0,1.8,0.1,2.6l0.9,0l0,3.2l-0.3,0c0,0.1,0.1,0.3,0.2,0.4l0.1,0l0,0.2c0.1,0.2,0.2,0.4,0.4,0.5l0-0.7l3.2,0l0,2
			c0.8,0.2,1.6,0.4,2.5,0.5l0-2.6l3,0l0,3c0.1,0,0.2,0,0.4,0l0-3l3.2,0l0,3l-3,0c3.3,0.4,6.1,0.5,6.1,0.5S273.8,251.2,273.7,250.9z
			 M265.2,129.7l3,0l0,3l-3,0L265.2,129.7z M222.3,183.5l-3,0l0-3.2l3,0L222.3,183.5z M222.4,177.8l-3,0l0-3l3,0L222.4,177.8z
			 M222.4,174.4l-3,0l0-3.2l3,0L222.4,174.4z M225.8,183.5l-3.2,0l0-3.2l3.2,0L225.8,183.5z M225.9,177.8l-3.2,0l0-3l3.2,0
			L225.9,177.8z M225.9,174.4l-3.2,0l0-3.2l3.2,0L225.9,174.4z M225.9,168.7l-3.2,0l0-3l3.2,0L225.9,168.7z M226,165.3l-3.2,0l0-3.2
			l3.2,0L226,165.3z M231.4,177.9l-3,0l0-3l3,0L231.4,177.9z M231.5,174.5l-3,0l0-3.2l3,0L231.5,174.5z M231.5,168.8l-3,0l0-3l3,0
			L231.5,168.8z M231.5,165.4l-3,0l0-3.2l3,0L231.5,165.4z M231.6,159.7l-3,0l0-3l3,0L231.6,159.7z M235,174.5l-3.2,0l0-3.2l3.2,0
			L235,174.5z M235,168.8l-3.2,0l0-3l3.2,0L235,168.8z M235.1,165.4l-3.2,0l0-3.2l3.2,0L235.1,165.4z M235.1,159.7l-3.2,0l0-3l3.2,0
			L235.1,159.7z M235.1,156.3l-3.2,0l0-3.2l3.2,0L235.1,156.3z M240.6,168.9l-3,0l0-3l3,0L240.6,168.9z M240.6,165.5l-3,0l0-3.2l3,0
			L240.6,165.5z M240.7,159.8l-3,0l0-3l3,0L240.7,159.8z M240.7,156.4l-3,0l0-3.2l3,0L240.7,156.4z M240.8,150.7l-3,0l0-3l3,0
			L240.8,150.7z M244.1,168.9l-3.2,0l0-3l3.2,0L244.1,168.9z M244.1,165.5l-3.2,0l0-3.2l3.2,0L244.1,165.5z M244.2,159.8l-3.2,0l0-3
			l3.2,0L244.2,159.8z M244.2,156.4l-3.2,0l0-3.2l3.2,0L244.2,156.4z M244.3,150.7l-3.2,0l0-3l3.2,0L244.3,150.7z M244.3,147.3
			l-3.2,0l0-3.2l3.2,0L244.3,147.3z M249.8,159.8l-3,0l0-3l3,0L249.8,159.8z M249.8,156.5l-3,0l0-3.2l3,0L249.8,156.5z M249.8,150.8
			l-3,0l0-3l3,0L249.8,150.8z M249.9,147.4l-3,0l0-3.2l3,0L249.9,147.4z M249.9,141.7l-3,0l0-3l3,0L249.9,141.7z M253.3,159.9
			l-3.2,0l0-3l3.2,0L253.3,159.9z M253.3,156.5l-3.2,0l0-3.2l3.2,0L253.3,156.5z M253.4,150.8l-3.2,0l0-3l3.2,0L253.4,150.8z
			 M253.4,147.4l-3.2,0l0-3.2l3.2,0L253.4,147.4z M253.4,141.7l-3.2,0l0-3l3.2,0L253.4,141.7z M253.5,138.3l-3.2,0l0-3.2l3.2,0
			L253.5,138.3z M256.1,129.6l3,0l0,3l-3,0L256.1,129.6z M256,135.2l3,0l0,3.2l-3,0L256,135.2z M256,138.7l3,0l0,3l-3,0L256,138.7z
			 M256,144.3l3,0l0,3.2l-3,0L256,144.3z M255.9,147.8l3,0l0,3l-3,0L255.9,147.8z M255.9,153.4l3,0l0,3.2l-3,0L255.9,153.4z
			 M255.9,156.9l3,0l0,3l-3,0L255.9,156.9z M255.8,162.4l3,0l0,3.2l-3,0L255.8,162.4z M255.8,166l3,0l0,3l-3,0L255.8,166z
			 M255.7,171.5l3,0l0,3.2l-3,0L255.7,171.5z M255.7,175l3,0l0,3l-3,0L255.7,175z M255.7,180.6l3,0l0,3.2l-3,0L255.7,180.6z
			 M255.6,187.1l0-3l3,0l0,3L255.6,187.1z M261.6,247.4l-3.2,0l0-3.2l3.2,0L261.6,247.4z M261.7,241.7l-3.2,0l0-3l3.2,0L261.7,241.7
			z M261.7,238.3l-3.2,0l0-3.2l3.2,0L261.7,238.3z M261.8,232.6l-3.2,0l0-3l3.2,0L261.8,232.6z M261.8,229.2l-3.2,0l0-3.2l3.2,0
			L261.8,229.2z M261.8,223.5l-3.2,0l0-3l3.2,0L261.8,223.5z M261.9,220.2l-3.2,0l0-3.2l3.2,0L261.9,220.2z M261.9,214.5l-3.2,0l0-3
			l3.2,0L261.9,214.5z M261.9,211.1l-3.2,0l0-3.2l3.2,0L261.9,211.1z M262,205.4l-3.2,0l0-3l3.2,0L262,205.4z M262,202l-3.2,0l0-3.2
			l3.2,0L262,202z M262.1,196.3l-3.2,0l0-3l3.2,0L262.1,196.3z M262.1,192.9l-3.2,0l0-3.2l3.2,0L262.1,192.9z M262.1,187.2l-3.2,0
			l0-3l3.2,0L262.1,187.2z M262.2,183.8l-3.2,0l0-3.2l3.2,0L262.2,183.8z M262.2,178.1l-3.2,0l0-3l3.2,0L262.2,178.1z M262.2,174.7
			l-3.2,0l0-3.2l3.2,0L262.2,174.7z M262.3,169l-3.2,0l0-3l3.2,0L262.3,169z M262.3,165.7l-3.2,0l0-3.2l3.2,0L262.3,165.7z
			 M262.4,159.9l-3.2,0l0-3l3.2,0L262.4,159.9z M262.4,156.6l-3.2,0l0-3.2l3.2,0L262.4,156.6z M262.4,150.9l-3.2,0l0-3l3.2,0
			L262.4,150.9z M262.5,147.5l-3.2,0l0-3.2l3.2,0L262.5,147.5z M262.5,141.8l-3.2,0l0-3l3.2,0L262.5,141.8z M262.5,138.4l-3.2,0
			l0-3.2l3.2,0L262.5,138.4z M262.6,132.7l-3.2,0l0-3l3.2,0L262.6,132.7z M264.6,193.3l3,0l0,3l-3,0L264.6,193.3z M264.6,198.9l3,0
			l0,3.2l-3,0L264.6,198.9z M267.2,247.5l-3,0l0-3.2l3,0L267.2,247.5z M267.2,241.8l-3,0l0-3l3,0L267.2,241.8z M267.3,238.4l-3,0
			l0-3.2l3,0L267.3,238.4z M267.3,232.7l-3,0l0-3l3,0L267.3,232.7z M267.3,229.3l-3,0l0-3.2l3,0L267.3,229.3z M267.4,223.6l-3,0l0-3
			l3,0L267.4,223.6z M267.4,220.2l-3,0l0-3.2l3,0L267.4,220.2z M267.5,214.5l-3,0l0-3l3,0L267.5,214.5z M267.5,211.1l-3,0l0-3.2l3,0
			L267.5,211.1z M267.5,205.4l-3,0l0-3l3,0L267.5,205.4z M270.7,247.5l-3.2,0l0-3.2l3.2,0L270.7,247.5z M270.8,241.8l-3.2,0l0-3
			l3.2,0L270.8,241.8z M270.8,238.4l-3.2,0l0-3.2l3.2,0L270.8,238.4z M270.8,232.7l-3.2,0l0-3l3.2,0L270.8,232.7z M270.9,229.3
			l-3.2,0l0-3.2l3.2,0L270.9,229.3z"/>
		<linearGradient id="SVGID_47_" gradientUnits="userSpaceOnUse" x1="210.8086" y1="175.4846" x2="222.0902" y2="187.4785">
			<stop  offset="3.831420e-03" style="stop-color:#F5443C"/>
			<stop  offset="0.2707" style="stop-color:#ED443D"/>
			<stop  offset="0.6835" style="stop-color:#D7433F"/>
			<stop  offset="1" style="stop-color:#C24242"/>
		</linearGradient>
		<path class="st53" d="M207.1,170.6c-0.5,0.7,1.5,2,2,7c0.5,5.8-1.3,6.8-0.5,8.5c0.5,1,12.7,4.1,14.4,1.1c0.7-1.2,0.8-4-0.9-9.9
			c-1.5-5.1-4.6-8.1-5.4-8.2C214.7,168.9,208.2,169,207.1,170.6z"/>
		<linearGradient id="SVGID_48_" gradientUnits="userSpaceOnUse" x1="330.9599" y1="196.5244" x2="352.4239" y2="196.5244">
			<stop  offset="3.831420e-03" style="stop-color:#F5443C"/>
			<stop  offset="8.418414e-02" style="stop-color:#ED413B"/>
			<stop  offset="0.4711" style="stop-color:#CB3635"/>
			<stop  offset="0.7902" style="stop-color:#B62F32"/>
			<stop  offset="1" style="stop-color:#AE2C31"/>
		</linearGradient>
		<path class="st54" d="M331,197.4c0.1,0.9,2.9,4.4,3.5,6.1c0.6,1.6,1.8,4.7,3,4.7c1.3,0,4-3.9,6.9-5.6c5.4-3.1,7.2-1.2,7.9-3.6
			c0.6-2.4-2.4-7.5-2.4-7.5s-0.9-5.6-2.5-6.3C342,182.9,330.5,194.1,331,197.4z"/>
		<linearGradient id="SVGID_49_" gradientUnits="userSpaceOnUse" x1="298.0966" y1="138.4916" x2="301.8006" y2="138.4916">
			<stop  offset="3.831420e-03" style="stop-color:#F5443C"/>
			<stop  offset="8.418414e-02" style="stop-color:#ED413B"/>
			<stop  offset="0.4711" style="stop-color:#CB3635"/>
			<stop  offset="0.7902" style="stop-color:#B62F32"/>
			<stop  offset="1" style="stop-color:#AE2C31"/>
		</linearGradient>
		<polygon class="st55" points="298.1,144.5 299.3,132.5 301.8,133.9 		"/>
		<linearGradient id="SVGID_50_" gradientUnits="userSpaceOnUse" x1="296.4791" y1="129.6923" x2="304.0709" y2="129.6923">
			<stop  offset="3.831420e-03" style="stop-color:#FF534C"/>
			<stop  offset="0.2585" style="stop-color:#FC524B"/>
			<stop  offset="0.4803" style="stop-color:#F14D47"/>
			<stop  offset="0.6898" style="stop-color:#DF4541"/>
			<stop  offset="0.8907" style="stop-color:#C63A39"/>
			<stop  offset="1" style="stop-color:#B53333"/>
		</linearGradient>
		<path class="st56" d="M299.3,132.5l4.8,4c0,0-0.1-6.5-0.9-8c-2.5-4.8-6.7-5.5-6.7-5.5l0.3,1.2c0,0,2.2,1,2.7,4.2
			C299.7,130.2,299.3,132.5,299.3,132.5z"/>
		<linearGradient id="SVGID_51_" gradientUnits="userSpaceOnUse" x1="262.4628" y1="130.3296" x2="271.35" y2="130.3296">
			<stop  offset="3.831420e-03" style="stop-color:#F5443C"/>
			<stop  offset="6.771139e-03" style="stop-color:#F4443C"/>
			<stop  offset="0.1384" style="stop-color:#DB3B38"/>
			<stop  offset="0.2835" style="stop-color:#C73435"/>
			<stop  offset="0.4495" style="stop-color:#B93033"/>
			<stop  offset="0.6526" style="stop-color:#B02D31"/>
			<stop  offset="1" style="stop-color:#AE2C31"/>
		</linearGradient>
		<path class="st57" d="M271.4,124.2c0,0-5.6,6.7-6.5,7.1c-2.8,1.4-2.5,5-2.3,5.1c0.2,0.1,4.7-3.1,4.7-3.1L271.4,124.2z"/>
		<linearGradient id="SVGID_52_" gradientUnits="userSpaceOnUse" x1="264.8768" y1="131.3184" x2="272.442" y2="131.3184">
			<stop  offset="3.831420e-03" style="stop-color:#FF534C"/>
			<stop  offset="0.1211" style="stop-color:#EC4B46"/>
			<stop  offset="0.3145" style="stop-color:#D4403D"/>
			<stop  offset="0.5185" style="stop-color:#C33938"/>
			<stop  offset="0.7378" style="stop-color:#B83434"/>
			<stop  offset="1" style="stop-color:#B53333"/>
		</linearGradient>
		<path class="st58" d="M267.2,138.4c0,0,0.1-5.2-2.3-7.1l6.5-7.1l1.1,4.4C272.4,128.6,268.6,132.5,267.2,138.4z"/>
	</g>
</g>
</svg>
