<?xml version="1.0" encoding="utf-8"?>
<!-- Generator: Adobe Illustrator 24.1.0, SVG Export Plug-In . SVG Version: 6.00 Build 0)  -->
<svg version="1.1" id="Layer_5" xmlns="http://www.w3.org/2000/svg" xmlns:xlink="http://www.w3.org/1999/xlink" x="0px" y="0px"
	 viewBox="0 0 512 512" style="enable-background:new 0 0 512 512;" xml:space="preserve">
<style type="text/css">
	.st0{display:none;fill:#8EBAC5;}
	.st1{display:none;fill:#BB5D4C;}
	.st2{display:none;fill:#A44F3E;}
	.st3{display:none;fill:#FF9838;}
	.st4{display:none;fill:#FF8709;}
	.st5{display:none;fill:#DEECF1;}
	.st6{display:none;fill:#A8D3D8;}
	.st7{display:none;fill:#FFF156;}
	.st8{display:none;}
	.st9{clip-path:url(#SVGID_2_);}
	.st10{fill:#D6BD92;}
	.st11{fill:#2A3236;}
	.st12{fill:#EEDEC4;}
	.st13{opacity:0.55;fill:#F0E2CC;}
	.st14{fill:url(#SVGID_3_);}
	.st15{opacity:0.15;fill:url(#SVGID_4_);}
	.st16{opacity:0.25;fill:url(#SVGID_5_);}
	.st17{fill:#FFB989;}
	.st18{fill:#FFC39A;}
	.st19{opacity:0.75;fill:#F8D6BD;}
	.st20{fill:#EC996B;}
	.st21{fill:#317F93;}
	.st22{fill:#FFD11A;}
	.st23{fill:#F29A2D;}
	.st24{fill:#4D4F5C;}
	.st25{opacity:0.32;fill:#4D4F5C;}
	.st26{clip-path:url(#SVGID_7_);fill:#E05C4A;}
	.st27{clip-path:url(#SVGID_7_);fill:#E8868C;}
	.st28{clip-path:url(#SVGID_7_);fill:#FFFEFF;}
	.st29{opacity:0.65;fill:#F5AF87;}
	.st30{fill:url(#SVGID_8_);}
	.st31{opacity:0.75;fill:#F4E9D8;}
	.st32{fill:#F8F0E5;}
	.st33{fill:#D8D8D7;}
	.st34{fill:#E4E4E3;}
	.st35{opacity:0.5;fill:#E4E4E3;}
	.st36{fill:#FFFFFF;}
	.st37{opacity:0.75;fill:#FFDFCC;}
	.st38{opacity:0.35;fill:#FFDFCC;}
	.st39{opacity:0.32;fill:#EAA47C;}
	.st40{fill:#FFD7C0;}
	.st41{fill:#F3C400;}
	.st42{opacity:0.65;fill:#FFD11A;}
	.st43{fill:#FEAD00;}
	.st44{fill:#FFEE47;}
	.st45{clip-path:url(#SVGID_10_);fill:#FFFEFF;}
	.st46{clip-path:url(#SVGID_10_);fill:url(#SVGID_11_);}
	.st47{clip-path:url(#SVGID_10_);fill:#4D4F5C;}
	.st48{fill:#FFFEFF;}
	.st49{clip-path:url(#SVGID_13_);fill:#FFFEFF;}
	.st50{clip-path:url(#SVGID_13_);fill:url(#SVGID_14_);}
	.st51{clip-path:url(#SVGID_13_);fill:#4D4F5C;}
</style>
<path class="st0" d="M314.8,134.8h-16.7c-4.4,0-8.2-3-9.4-7.3c-2.7-9.9-6.7-19.3-11.7-28.1c-2.2-3.8-1.6-8.5,1.4-11.5l11.9-11.9
	c3.7-3.7,3.7-9.7,0-13.4l-21.2-21.2c-3.7-3.7-9.7-3.7-13.4,0l-11.9,11.9c-3.1,3.1-7.8,3.6-11.5,1.4c-8.7-5-18.1-9-28.1-11.7
	c-4.3-1.2-7.3-4.9-7.3-9.4V17c0-5.2-4.2-9.5-9.5-9.5h-30c-5.2,0-9.5,4.2-9.5,9.5v16.7c0,4.4-3,8.2-7.3,9.4
	c-9.9,2.7-19.3,6.7-28.1,11.7c-3.8,2.2-8.5,1.6-11.5-1.4l-12-11.9c-3.7-3.7-9.7-3.7-13.4,0L54.6,62.6c-3.7,3.7-3.7,9.7,0,13.4
	l11.9,11.9c3.1,3.1,3.6,7.8,1.4,11.5c-5,8.7-9,18.1-11.7,28.1c-1.2,4.3-4.9,7.3-9.4,7.3H30.3c-5.2,0-9.5,4.2-9.5,9.5v30
	c0,5.2,4.2,9.5,9.5,9.5H47c4.4,0,8.2,3,9.4,7.3c2.7,9.9,6.7,19.3,11.7,28.1c2.2,3.8,1.6,8.5-1.4,11.5l-11.9,11.9
	c-3.7,3.7-3.7,9.7,0,13.4l21.2,21.2c3.7,3.7,9.7,3.7,13.4,0l12-11.9c3.1-3.1,7.8-3.6,11.5-1.4c8.7,5,18.1,9,28.1,11.7
	c4.3,1.2,7.3,5,7.3,9.4v16.7c0,5.2,4.2,9.5,9.5,9.5h30c5.2,0,9.5-4.2,9.5-9.5v-16.7c0-4.4,3-8.2,7.3-9.4c9.9-2.7,19.3-6.7,28.1-11.7
	c3.8-2.2,8.5-1.6,11.5,1.4l11.9,11.9c3.7,3.7,9.7,3.7,13.4,0l21.2-21.2c3.7-3.7,3.7-9.7,0-13.4l-11.9-11.9
	c-3.1-3.1-3.6-7.8-1.4-11.5c5-8.7,9-18.1,11.7-28.1c1.2-4.3,4.9-7.3,9.4-7.3h16.7c5.2,0,9.5-4.2,9.5-9.5v-30
	C324.3,139,320,134.8,314.8,134.8z M172.5,222.4c-34.9,0-63.2-28.3-63.2-63.2S137.6,96,172.5,96s63.2,28.3,63.2,63.2
	S207.4,222.4,172.5,222.4z"/>
<path class="st1" d="M371.9,378l-27-53.5v-58.6h-83.3v58.6l-27,53.5H371.9z"/>
<path class="st2" d="M314.9,265.9V378h57l-27-53.5v-58.6H314.9z"/>
<path class="st1" d="M386,190.1h-5.3V169c0-21-8.6-41.3-24.5-54.9c-12.5-10.7-30-20.1-53.1-20.3c-23.1,0.3-40.6,9.6-53.1,20.3
	c-15.9,13.7-24.5,34-24.5,54.9v21.1h-5.3c-7.8,0-14,6.3-14,14v15.6c0,7.8,6.3,14,14,14h5.3c0.4,20.4,9,40,24.5,53.3
	c12.5,10.7,30,20.1,53.1,20.3c23.1-0.3,40.6-9.6,53.1-20.3c15.5-13.3,24-32.9,24.5-53.3h5.3c7.8,0,14-6.3,14-14v-15.6
	C400.1,196.4,393.8,190.1,386,190.1z"/>
<path class="st2" d="M386,190.1h-5.3V169c0-21-8.6-41.3-24.5-54.9c-2-1.8-4.2-3.5-6.5-5.1l0,137.3c-0.4,20.4-9,40-24.5,53.3
	c-2.6,2.3-5.5,4.5-8.6,6.5c16.6-2.9,29.7-10.6,39.6-19.1c15.5-13.3,24-32.9,24.5-53.3h5.3c7.8,0,14-6.3,14-14v-15.6
	C400.1,196.4,393.8,190.1,386,190.1z"/>
<path class="st3" d="M307.3,70.3h-8.1c-49.3,0-89.3,40-89.3,89.3v25.7h186.8v-25.7C396.6,110.3,356.6,70.3,307.3,70.3z"/>
<path class="st4" d="M307.3,70.3h-8.1c-3.8,0-7.5,0.2-11.2,0.7c44,5.6,78,43.1,78,88.6v25.7h30.7v-25.7
	C396.6,110.3,356.6,70.3,307.3,70.3z"/>
<path class="st4" d="M399.5,198.5H206.9c-7.1,0-12.9-5.8-12.9-12.9c0-7.1,5.8-12.9,12.9-12.9h192.6c7.1,0,12.9,5.8,12.9,12.9
	C412.4,192.7,406.6,198.5,399.5,198.5z"/>
<path class="st5" d="M434.9,342l-90-17.5c0,23-41.7,41.7-41.7,41.7s-41.7-18.7-41.7-41.7l-90,17.5c-34,10-57.3,27.8-57.3,63.2v76.3
	c0,12.7,10.3,23.1,23.1,23.1h331.9c12.7,0,23.1-10.3,23.1-23.1v-76.3C492.2,369.7,468.9,352,434.9,342z"/>
<path class="st6" d="M451.3,347.8c7,9.3,10.9,20.8,10.9,35.3v121.3h6.9c12.7,0,23.1-10.3,23.1-23.1v-76.3
	C492.2,375.8,476.2,358.6,451.3,347.8z"/>
<path class="st0" d="M261.5,324.5l-33.7,6.6c2,18.7,18.6,35.6,35.7,48.3c4.8,3.6,11.3,3.8,16.4,0.8l23.3-14
	C303.2,366.1,261.5,347.5,261.5,324.5z"/>
<path class="st0" d="M344.9,324.5c0,23-41.7,41.7-41.7,41.7l23.3,14c5.1,3.1,11.6,2.8,16.4-0.8c17.1-12.7,33.7-29.6,35.7-48.3
	L344.9,324.5z"/>
<path class="st3" d="M159.1,346.2l5,16.8c8.2,28.2,12.3,57.4,12.3,86.8v54.7h126.7c0,0,0-26.1,0-45.3c0-12.7-3.9-25.1-11.2-35.5
	c-21-29.9-64.1-92.7-64.1-92.7l-48.3,9.4C172.6,341.8,165.7,343.7,159.1,346.2z"/>
<path class="st4" d="M447.3,346.2l-5,16.8c-8.2,28.2-12.4,57.4-12.4,86.8v54.7H303.2c0,0,0-26.1,0-45.3c0-12.7,3.9-25.1,11.2-35.5
	c21-29.9,64.1-92.7,64.1-92.7l48.3,9.4C433.8,341.8,440.7,343.7,447.3,346.2z"/>
<path class="st7" d="M388.2,467h-44.1c-2.9,0-5.3-2.4-5.3-5.3v-15c0-2.9,2.4-5.3,5.3-5.3h44.1c2.9,0,5.3,2.4,5.3,5.3v15
	C393.5,464.6,391.1,467,388.2,467z"/>
<path class="st8" d="M388.2,474.5h-44.1c-7.1,0-12.8-5.8-12.8-12.8v-15c0-7.1,5.8-12.8,12.8-12.8h44.1c7.1,0,12.8,5.8,12.8,12.8v15
	C401,468.7,395.3,474.5,388.2,474.5z M346.3,459.5H386v-10.7h-39.8V459.5z"/>
<path class="st8" d="M187.5,318.4h-30c-9.4,0-17-7.6-17-17v-16.7c0-1-0.7-1.8-1.7-2.1c-10.4-2.8-20.4-7-29.8-12.4
	c-0.9-0.5-1.9-0.4-2.5,0.2l-12,12c-3.2,3.2-7.5,5-12,5c-4.5,0-8.8-1.8-12-5l-21.2-21.2c-3.2-3.2-5-7.5-5-12c0-4.5,1.8-8.8,5-12
	l11.9-12c0.6-0.6,0.7-1.6,0.2-2.5c-5.4-9.4-9.6-19.4-12.4-29.8c-0.3-1-1.1-1.7-2.1-1.7H30.3c-9.4,0-17-7.6-17-17v-30
	c0-9.4,7.6-17,17-17H47c1,0,1.8-0.7,2.1-1.7c2.8-10.4,7-20.4,12.4-29.8c0.5-0.9,0.4-1.9-0.2-2.5l-12-12c-3.2-3.2-5-7.5-5-12
	c0-4.5,1.8-8.8,5-12L70.6,36c3.2-3.2,7.5-5,12-5s8.8,1.8,12,5L106.5,48c0.6,0.6,1.6,0.7,2.5,0.2c9.4-5.4,19.4-9.6,29.8-12.4
	c1-0.3,1.7-1.1,1.7-2.1V17c0-9.4,7.6-17,17-17h30c9.4,0,17,7.6,17,17v16.7c0,1,0.7,1.8,1.7,2.1c10.4,2.8,20.4,7,29.8,12.4
	c0.9,0.5,1.9,0.4,2.5-0.2l11.9-12c6.6-6.6,17.4-6.6,24,0l2.2,2.2c7,7-3.6,17.6-10.6,10.6c-1.4-1.2-3.2-4.1-5-2.2l-12,11.9
	c-5.4,5.4-13.9,6.5-20.6,2.6c-8.3-4.8-17.1-8.4-26.3-10.9c-7.5-2.1-12.8-8.9-12.8-16.6V17c0-1.1-0.9-2-2-2h-30c-1.1,0-2,0.9-2,2
	v16.7c0,7.7-5.3,14.5-12.8,16.6c-9.2,2.5-18,6.2-26.3,10.9c-6.7,3.8-15.2,2.8-20.6-2.6L83.9,46.6c-0.5-0.5-1-0.6-1.4-0.6
	s-0.9,0.1-1.4,0.6L59.9,67.9c-0.5,0.5-0.6,1-0.6,1.4c0,0.4,0.1,0.9,0.6,1.4l12,12c5.4,5.4,6.5,13.9,2.6,20.6
	c-4.8,8.3-8.4,17.1-10.9,26.3c-2.1,7.5-8.9,12.8-16.6,12.8H30.3c-1.1,0-2,0.9-2,2v30c0,1.1,0.9,2,2,2H47c7.7,0,14.5,5.3,16.6,12.8
	c2.5,9.2,6.2,18,10.9,26.3c3.8,6.7,2.8,15.2-2.6,20.6l-11.9,12c-0.5,0.5-0.6,1-0.6,1.4c0,0.4,0.1,0.9,0.6,1.4l21.2,21.2
	c0.8,0.8,2,0.8,2.8,0l11.9-11.9c5.4-5.4,13.9-6.5,20.6-2.6c8.3,4.8,17.1,8.4,26.3,10.9c7.5,2.1,12.8,8.9,12.8,16.6v16.7
	c0,1.1,0.9,2,2,2h30c1.1,0,2-0.9,2-2v-16.7c0-7.7,5.3-14.6,12.8-16.6c9.6-2.6,13.5,11.9,3.9,14.5c-1,0.3-1.7,1.1-1.7,2.1v16.7
	C204.5,310.8,196.9,318.4,187.5,318.4z"/>
<path class="st8" d="M101.8,159.2c0-49.6,49.9-83.6,95.8-66.1c9.3,3.5,3.9,17.6-5.3,14c-36.3-13.8-75.5,13.1-75.5,52.1
	c0,31.7,26.7,57.5,59,55.6c9.9-0.6,10.8,14.4,0.9,15C136,232.2,101.8,199.7,101.8,159.2z"/>
<path class="st8" d="M428.3,333.1l-76-14.8v-18.8c21.3-14.6,32.9-35.2,35.4-58.3c11.1-0.9,19.8-10.2,19.8-21.5v-15.4
	c18.1-7.9,15.6-34.2-3.5-38.7v-5.9c0-53.5-43.4-96.9-96.8-96.9h-8.1c-53.5,0-96.8,43.4-96.8,96.8v6c-19.1,4.4-21.6,30.8-3.5,38.7
	v15.4c0,11.3,8.7,20.6,19.8,21.5c2.2,20.2,11.7,38.7,26.6,51.6c2.9,2.5,5.8,4.7,8.8,6.8v18.8l-76,14.8
	c-40.1,7.8-71.3,30.4-71.3,72.1v76.3c0,16.9,13.7,30.6,30.6,30.6h331.9c16.9,0,30.6-13.7,30.6-30.6v-76.3
	C499.7,363.6,468.6,340.9,428.3,333.1z M365.9,336.2c-5.4,7.9-13.8,20-22.8,33c-3.7,5.3-10.2,6-12.8,4.4l-11.8-7.1
	c11.6-6.8,27.5-18.5,32.4-33.3L365.9,336.2z M303.2,357.8c-11.4-5.7-34.1-19.9-34.2-33.3c0,0,0,0,0-0.1v-16.7
	c21.8,9.4,46.5,9.4,68.3,0v16.7C337.4,337.9,314.6,352.1,303.2,357.8z M217.3,159.7c0-30.8,17.1-57.6,42.2-71.6v9.4
	c0,9.9,15,9.9,15,0V81.6c6.7-2.1,13.8-3.4,21.2-3.7V115c0,9.9,15,9.9,15,0V77.9c7.4,0.3,14.5,1.6,21.2,3.7v15.9c0,9.9,15,9.9,15,0
	v-9.4c25.2,14,42.2,40.8,42.2,71.6v5.4H217.3V159.7z M206.9,180.1h192.6c7.2,0,7.2,10.9,0,10.9H206.9
	C199.7,191,199.7,180.1,206.9,180.1z M233.1,233.6c-0.1-4.1-3.4-7.3-7.5-7.3c-1.2-0.3-11.8,1.9-11.8-6.5V206h178.8v13.7
	c0,8.5-10.9,6.3-11.8,6.5c-4.1,0-7.4,3.3-7.5,7.3c-0.4,18.8-8.4,36.2-21.9,47.8c-28.6,24.7-67.7,24.7-96.4,0
	C241.5,269.7,233.5,252.3,233.1,233.6z M255.5,333.3c4.9,14.7,20.8,26.5,32.4,33.3c-11.9,6.4-11,8.3-16.4,7.6
	c-3.4-0.4-6.4-2.3-8.3-5.1c-9-13-17.3-25-22.7-32.9L255.5,333.3z M168.9,497h-31.7c-8.6,0-15.6-7-15.6-15.6v-76.3
	c0-22.5,10.2-38,32.6-48.8c0.9,4,14.6,41.3,14.6,93.4V497z M295.7,497H183.9v-47.2c0-56.5-14.3-92.8-15.7-99
	c8.8-2.9,2.3-0.7,56.1-11.5c15.5,22.5,44.4,64.5,61.4,88.7c6.5,9.2,9.9,20,9.9,31.2V497z M303.2,427.8c-1.5-2.9-3.2-5.8-5.1-8.5
	c-5.8-8.2-13.2-18.9-21-30.2c2.3-0.5,4.6-1.4,6.7-2.7l19.4-11.7l19.4,11.7c2.1,1.3,4.4,2.2,6.7,2.7c-7.8,11.2-15.3,22-21,30.2
	C306.4,422.1,304.7,424.9,303.2,427.8z M484.7,481.4c0,8.6-7,15.6-15.6,15.6h-31.7v-28.3c0-9.9-15-9.9-15,0V497H310.7v-37.8
	c0-11.2,3.4-22,9.9-31.2c9.7-13.8,49.6-71.3,61.4-88.7c53.8,10.8,47.3,8.6,56.1,11.5c-1.1,4.6-13.7,38.9-15.5,87.6
	c-0.4,9.9,14.6,10.4,15,0.5c1.7-47.1,13.2-77.4,14.5-82.5c22.4,10.7,32.6,26.3,32.6,48.7V481.4z"/>
<g>
	<defs>
		<rect id="SVGID_1_" x="85.6" y="45.8" width="340.8" height="420.3"/>
	</defs>
	<clipPath id="SVGID_2_">
		<use xlink:href="#SVGID_1_"  style="overflow:visible;"/>
	</clipPath>
	<g class="st9">
		<path class="st10" d="M333.4,357.5c0,0-11.1-12.3-2.7-27.1C330.7,330.4,355,332,333.4,357.5z"/>
		<path class="st11" d="M222.1,632.5c-5.5,0.4-10.7-0.3-14.8-2.7c-2.8,5.4-6.3,11.4-9.7,14.6c-7,6.6-30,29-24.3,33.1
			c1.7,1.2,35.3-11.4,37.1-13.6c1.8-2.2,13.2-17.8,13.2-17.8v6.7H234v-21l-1.5-0.9C228.9,631.8,225.3,632.3,222.1,632.5z"/>
		<path class="st11" d="M295.2,632.5c5.5,0.4,10.7-0.3,14.8-2.7c2.8,5.4,6.3,11.4,9.7,14.6c7,6.6,30,29,24.3,33.1
			c-1.7,1.2-35.3-11.4-37.1-13.6c-1.8-2.2-13.2-17.8-13.2-17.8v6.7h-10.3v-21l1.5-0.9C288.4,631.8,292,632.3,295.2,632.5z"/>
		<path class="st12" d="M257.9,191.1l-26.9-6.3c0,0-46,15.1-46,15.5c0,0,24.9,31.2,19.1,60.6l15.1,91.4l74.8-1.3l12.8-92.9
			c0,0-1.6-39.9,17.5-59.9c0,0-9.5-3.5-14.1-4.9c-4.6-1.4-25.7-7.5-25.7-7.5S259.8,191.5,257.9,191.1z"/>
		<path class="st13" d="M220.3,205.7c-1.8,0-3.7-0.1-5.5-0.1c0.2,0.1,0.3,0.3,0.5,0.4C216.9,205.9,218.6,205.8,220.3,205.7z"/>
		<path class="st13" d="M296.9,329.8c-1.6-6.1-3.4-11-3.4-11c-14.1-25-1.8-85.5-1.8-85.5c-1.5,0.3-3,0.6-4.6,0.8
			c0.3-2.9,0.9-6.3,1.6-10l1,0.2c1,0.2,2.1-0.3,2.4-1.3l2.8-8.5c0.4-1.1-0.3-2.4-1.5-2.6l-2-0.4c2.7-11.6,5.6-21.9,5.6-21.9
			l-11.5-2.8c-0.1,5.2-1.7,13.9-3.6,22.7l-1.9-0.4c-1.1-0.2-2.2,0.5-2.4,1.6l-1.6,8.5c-0.2,1.1,0.5,2.1,1.5,2.4l1.5,0.4
			c-1.5,6.2-2.9,11.3-3.6,13.6c-14.7,1-29.9,0.1-41.2-0.9c-0.7-2.4-2-7.4-3.5-13.3l1.5-0.4c1.1-0.2,1.7-1.3,1.5-2.4l-1.6-8.5
			c-0.2-1.1-1.3-1.8-2.4-1.6l-1.9,0.4c-1.8-8.1-3.3-16.1-3.5-21.4c-3,1.2-7.2,1.7-11.3,3.3c1,3.8,3.4,12.1,5.2,20.2l-2,0.4
			c-1.2,0.3-1.9,1.5-1.5,2.6l2.8,8.5c0.3,1,1.4,1.6,2.4,1.3l1-0.2c0.7,3.5,1.2,6.8,1.6,9.7c-3.8-0.5-6-0.9-6-0.9s8.4,57.9-3.1,84.8
			l5.8,35.1l74.8-1.3L296.9,329.8z"/>
		<path class="st13" d="M307,249.2c-12.1,9.8-24.8,19.1-39,25.8c-14.4,6.9-35.5,13.1-47.9-1.4c-5.4-6.4-10.1-13.5-15.1-20.2
			c-0.1,2.5-0.3,5-0.8,7.4l15.1,91.4l74.8-1.3l12.8-92.9C306.8,258,306.7,254.5,307,249.2z"/>
		<linearGradient id="SVGID_3_" gradientUnits="userSpaceOnUse" x1="254.7609" y1="641.6572" x2="241.6715" y2="222.7948">
			<stop  offset="5.913980e-02" style="stop-color:#317F93"/>
			<stop  offset="1" style="stop-color:#1A7187"/>
		</linearGradient>
		<path class="st14" d="M304.4,498.2c0.7-9,1.1-68.3,1.6-86.9c0.5-18.6-2.7-61.7-3.8-71.3c-1.1-9.6-5.4-21.1-5.4-21.1
			c-14.1-25-1.8-85.5-1.8-85.5c-31.4,6.3-75.2-1.1-75.2-1.1s9.2,63.4-4.9,88.4c0,0-4.3,11.5-5.4,21.1c-1.1,9.6-4.3,52.8-3.8,71.3
			c0.5,18.6,1.2,73,1.6,86.9c0.3,11.1-14.4,124.3-17.1,129.8c0,0,17.7,16.2,52.7,3c0,0,1.5-72.7-0.4-115.2
			c-0.9-20.9,0.6-35.4,5-55.8l8.6-55.1l8.2,53.4c4.3,20.4,5.9,34.8,4.9,55.6c-1.9,42.5-3.4,117.1-3.4,117.1c35,13.1,52.7-3,52.7-3
			C315.8,624.3,302.9,518.4,304.4,498.2z"/>
		<linearGradient id="SVGID_4_" gradientUnits="userSpaceOnUse" x1="311.9445" y1="2471.543" x2="235.6566" y2="30.3153">
			<stop  offset="5.913980e-02" style="stop-color:#317F93"/>
			<stop  offset="1" style="stop-color:#1A7187"/>
		</linearGradient>
		<path class="st15" d="M304.4,498.2c0.7-9,1.1-68.3,1.6-86.9c0.5-18.6-2.7-61.7-3.8-71.3c-0.6-5.1-2-10.7-3.3-14.8l0,0l0,0
			c-1.1-3.7-2.1-6.3-2.1-6.3c-0.4-0.8-0.8-1.6-1.2-2.4c-0.1-0.2-0.2-0.4-0.3-0.6c-0.3-0.8-0.7-1.6-1-2.4c-0.1-0.3-0.2-0.6-0.3-0.8
			c-0.2-0.6-0.4-1.2-0.6-1.8c-0.1-0.4-0.3-0.8-0.4-1.2c-0.2-0.7-0.4-1.5-0.6-2.2c-0.1-0.6-0.3-1.2-0.4-1.8c-0.1-0.3-0.1-0.6-0.2-0.9
			c-0.1-0.6-0.2-1.2-0.3-1.8h0c-2.3-13-1.7-28.7-0.5-41.9c-2.5,4.2-5.4,8.1-9,11.3c-9.6,8.6-22.8,19.1-35.9,20.3
			c-10,0.9-17.5-5.9-23.5-12.3c-0.2,8-0.8,16-2.1,23.2c-0.1,0.6-0.2,1.2-0.4,1.8c0,0.2-0.1,0.4-0.1,0.7c-0.1,0.6-0.3,1.2-0.4,1.8
			c-0.1,0.2-0.1,0.4-0.2,0.7c-0.1,0.6-0.3,1.2-0.4,1.7c-0.1,0.3-0.1,0.5-0.2,0.8c-0.1,0.5-0.3,1-0.5,1.5c-0.1,0.3-0.2,0.5-0.3,0.8
			c-0.2,0.5-0.3,0.9-0.5,1.4c-0.1,0.3-0.2,0.6-0.4,0.9c-0.2,0.4-0.3,0.8-0.5,1.2c-0.2,0.4-0.3,0.8-0.5,1.2c-0.1,0.3-0.2,0.6-0.4,0.8
			c-0.3,0.6-0.6,1.3-1,1.9c0,0,0,0.1-0.1,0.3c0,0,0,0,0,0c-0.7,1.8-4.3,12.1-5.3,20.8c-1.1,9.6-4.3,52.8-3.8,71.3
			c0.5,18.6,1.2,73,1.6,86.9c0.3,11.1-14.4,124.3-17.1,129.8c0,0,17.7,16.2,52.7,3c0,0,1.5-72.7-0.4-115.2
			c-0.9-20.9,0.6-35.4,5-55.8l8.6-55.1l8.2,53.4c4.3,20.4,5.9,34.8,4.9,55.6c-1.9,42.5-3.4,117.1-3.4,117.1c35,13.1,52.7-3,52.7-3
			C315.8,624.3,302.9,518.4,304.4,498.2z"/>
		<linearGradient id="SVGID_5_" gradientUnits="userSpaceOnUse" x1="262.8379" y1="639.7643" x2="249.8008" y2="222.5768">
			<stop  offset="5.913980e-02" style="stop-color:#317F93"/>
			<stop  offset="1" style="stop-color:#1A7187"/>
		</linearGradient>
		<path class="st16" d="M302.2,340c-1.1-9.6-5.4-21.1-5.4-21.1c-5.5-9.7-7-24.8-6.7-39.7c-1.7,0.2-3.4,0.4-5.1,0.6
			c-12.8,1.4-23.2,10.9-26.2,23.4c-0.4,1.8-3.5,29.2-19.1,24.5c-9.2-2.7-17.4-6.2-21.7-14.1c-0.9,2.6-1.9,4.9-3.1,7
			c0,0-4.3,11.5-5.4,21.1c-1.1,9.6-4.3,52.8-3.8,71.3c0.2,6.1,0.4,16.2,0.6,27.4c13.7,5.7,28.6,10.1,43.1,9.1l6.7-43l6.2,40.5
			c1.1-0.4,2.5-0.7,4.2-1.2c9.3-2.4,12.3-3.1,15-18.3c1.5-8.3,3.6-18.5,5.6-27.1c1-4.2,1.7-18.2,4.2-23.8c0,0,7.7,2.2,13.6-2.7
			C303.9,359.1,302.8,345,302.2,340z"/>
		<path class="st17" d="M272.9,160.2c-9,4.6-19.6,2.6-29.4-0.1c-0.7,7.3-3.7,21.7-9.3,25.4c0,0,5.6,7.4,25.9,7.2
			c20.4-0.3,22.4-6.5,22.4-6.5S273.1,178.3,272.9,160.2z"/>
		<g>
			<g>
				<path class="st18" d="M227.4,116.2c0,0-9.4-8.8-13.4-3.7s-2.2,22.8,4.3,23c6.5,0.2,9.2,3.9,9.2,3.9V116.2z"/>
				<path class="st19" d="M222.8,118.5c-1.1-1.8-2.5-4.4-4.4-4.8c-2.2-0.5-3.7-0.4-4.4,1.5c-0.9,2.4-0.8,6.3,1.1,11.4
					c4.3,12,10.1,7.2,12.4,5.4C227,131.6,225.9,123.6,222.8,118.5z"/>
				<path class="st20" d="M214.9,118.6c0,0,3.5-4.5,5-1.6c1.5,2.9,6.1,12,3.9,13.7c-2.2,1.7-5,1.8-4.2-5.4
					C220.6,118.1,217.9,117.1,214.9,118.6z"/>
			</g>
			<g>
				<path class="st18" d="M285.3,116.2c0,0,9.4-8.8,13.4-3.7c4.1,5.1,2.2,22.8-4.3,23c-6.5,0.2-9.2,3.9-9.2,3.9V116.2z"/>
				<path class="st19" d="M289.9,118.5c1.1-1.8,2.5-4.4,4.4-4.8c2.2-0.5,3.7-0.4,4.4,1.5c0.9,2.4,0.8,6.3-1.1,11.4
					c-4.3,12-10.1,7.2-12.4,5.4C285.7,131.6,286.8,123.6,289.9,118.5z"/>
				<path class="st20" d="M297.8,118.6c0,0-3.5-4.5-5-1.6c-1.5,2.9-6.1,12-3.9,13.7c2.2,1.7,5,1.8,4.2-5.4
					C292.1,118.1,294.8,117.1,297.8,118.6z"/>
			</g>
		</g>
		<path class="st18" d="M261.1,79.3c-2.7,0.1-5.3-0.1-8-0.4c-8.8-1.2-28.7-0.9-30.6,25.2c-2.5,33.7,16.7,68.5,34.8,66.5
			c0,0,34.8-0.5,33.1-66C290.4,104.7,289.3,77.7,261.1,79.3z"/>
		<g>
			<path class="st21" d="M216.1,189.6c0,0,9,32.5,10,46.6H238c0,0-10.4-36.9-10.5-50.2L216.1,189.6z"/>
			<g>
				<path class="st22" d="M218.1,213.9l2.8,8.5c0.3,1,1.4,1.6,2.4,1.3l12.3-2.9c1.1-0.2,1.7-1.3,1.5-2.4l-1.6-8.5
					c-0.2-1.1-1.3-1.8-2.4-1.6l-13.5,2.9C218.4,211.5,217.7,212.7,218.1,213.9z"/>
				<path class="st23" d="M222.4,216l0.9,2.8c0.4,1.1,1.5,1.8,2.7,1.5l5.1-1.2c1.2-0.3,2-1.5,1.7-2.7l-0.5-2.7
					c-0.2-1.3-1.5-2.1-2.7-1.8l-5.4,1.2C222.7,213.3,222,214.7,222.4,216z"/>
			</g>
		</g>
		<g>
			<path class="st21" d="M300.1,190.2c0,0-8.9,32.6-9.9,46.7h-11.8c0,0,10.3-36.7,10.5-50L300.1,190.2z"/>
			<g>
				<path class="st22" d="M298.2,214.5l-2.8,8.5c-0.3,1-1.4,1.6-2.4,1.3l-12.3-2.9c-1.1-0.2-1.7-1.3-1.5-2.4l1.6-8.5
					c0.2-1.1,1.3-1.8,2.4-1.6l13.5,2.9C297.9,212.2,298.6,213.4,298.2,214.5z"/>
				<path class="st23" d="M293.9,216.7l-0.9,2.8c-0.4,1.1-1.5,1.8-2.7,1.5l-5.1-1.2c-1.2-0.3-2-1.5-1.7-2.7l0.5-2.7
					c0.2-1.3,1.5-2.1,2.7-1.8l5.4,1.2C293.6,214,294.3,215.4,293.9,216.7z"/>
			</g>
		</g>
		<path class="st24" d="M265.2,97.7c-1.3,0.1-2.3,1.2-2.4,2.5c-0.2,1.9-0.3,5.4,1.4,6c2.3,0.9,8.5-4.1,18.8-1c0,0,3-4.3-7.9-6.3
			C269.4,97.8,266.7,97.6,265.2,97.7z"/>
		<path class="st24" d="M248.3,97.4c1.3,0.1,2.3,1.1,2.5,2.4c0.3,1.9,0.5,5.4-1.1,6.1c-2.3,1-8.6-3.7-18.9-0.2c0,0-3.1-4.1,7.7-6.6
			C244.1,97.6,246.8,97.3,248.3,97.4z"/>
		<path class="st24" d="M286.3,114.8c0,0,0.8,26.8-9.7,36c0,0-2.5-11.8-6.4-12c-2.6-0.1-7.4,1.1-13.5,1.1
			c-6.1-0.1-10.9-1.3-13.5-1.1c-3.9,0.2-6.4,12-6.4,12c-10.4-9.2-9.5-31.4-9.5-31.4s-4.3-5.4-4-3.2c0.3,2.2,0.5,1.2,1.7,23.9
			c1.2,22.4,18.3,40.7,31.7,41.1c13.4-0.4,30.5-18.7,31.7-41.1c1.2-22.7,1.4-23.6,1.7-25.8C290.4,112.1,286.3,114.8,286.3,114.8z"/>
		<path class="st25" d="M256.7,171.1c-14.4,0-28.6-22.7-28.6-22.7c4,16.4,17.6,28.9,28.6,29.2c11-0.3,24.6-12.8,28.6-29.2
			C285.3,148.5,269.7,171.1,256.7,171.1z"/>
		<g>
			<defs>
				<path id="SVGID_6_" d="M242.6,141.8c0,0,18.5,5.5,27.5-1c0,0-2.7,15.8-13.4,15.4C246,155.7,243.1,145.8,242.6,141.8z"/>
			</defs>
			<clipPath id="SVGID_7_">
				<use xlink:href="#SVGID_6_"  style="overflow:visible;"/>
			</clipPath>
			<path class="st26" d="M242.6,141.8c0,0,18.5,5.5,27.5-1c0,0-2.7,15.8-13.4,15.4C246,155.7,243.1,145.8,242.6,141.8z"/>
			<path class="st27" d="M253.1,150.2c-2.7,0.3-4.2,1-5.9,1.7c2.1,2.3,5.2,4.1,9.6,4.2c3.7,0.2,6.4-1.6,8.4-4
				C263.9,150.9,258.3,149.7,253.1,150.2z"/>
			<path class="st28" d="M239,139.5c0,0,23.4,7,34.6-1.3c0,0-3.8,12.9-16.9,12.9C243.3,151.1,240.3,141.8,239,139.5z"/>
		</g>
		<path class="st29" d="M262.9,134.7c-0.9,0-1.6,0.1-2.4,0.2c-8.5,7-3.9-21.7-4.9-25.1c-0.9,0.1-2.1,0.7-2.1,0.7s-6.1,22.1-5.6,23.8
			c0.5,1.7,5.7,2.7,6.2,3.6c0.2,0.5,0.9,0.8,1.6,0.8c0.7,0,1.4-0.3,1.6-0.8c0.5-0.9,5.2-1.8,6.1-3.3
			C263.3,134.7,263.1,134.7,262.9,134.7z"/>
		<path class="st29" d="M256.1,109.9C256.2,109.9,256.2,109.9,256.1,109.9C256.2,109.9,256.2,109.9,256.1,109.9z"/>
		<path class="st29" d="M256,109.8c0,0-0.1,0-0.1,0c0,0-0.1,0-0.2,0C255.8,109.8,255.9,109.8,256,109.8z"/>
		<linearGradient id="SVGID_8_" gradientUnits="userSpaceOnUse" x1="254.9237" y1="123.0317" x2="258.6413" y2="122.9299">
			<stop  offset="0" style="stop-color:#FFC8A2"/>
			<stop  offset="0.914" style="stop-color:#FFC39A"/>
		</linearGradient>
		<path class="st30" d="M254.7,110.1c0,0,0.1,0,0.1,0c-0.1,0-0.2,0-0.3,0c0,0,0,0,0,0c0.7,2.3-0.2,17,0.8,23.6
			c0.6,3.7,4.4,2.2,6.3,1.3c-5.3,0-5.2-22.2-6.1-25.2c-0.3,0-0.7,0.2-1.1,0.3C254.6,110.1,254.6,110.1,254.7,110.1z"/>
		<path class="st24" d="M234.8,69.5c0.8,0.3,1.6,0,2-0.7c1.8-3.1,7.7-10.1,25-7.5c9.2,1.4,28.7,4.9,36,12.4c2.2,2.2,4,23.9-0.9,37.5
			c0,0-3.9-1.3-6.7,3c0,0.1-0.1,0.1-0.1,0.2c-0.1,0.2-0.3,0.6-0.6,1.2c-0.8,1.5-3.1,1-3.1-0.8c0-5.7-0.5-13.7-2.9-18.4
			c-3.8-7.6-14.1-14.2-26.3-4.5c-0.5,0.4-1.2,0.5-1.7,0.2c-3.4-1.6-15.3-6.7-20.1-4.2c-5.5,2.7-7.7,17.7-7.9,29.9
			c0,0.9-0.7,1.6-1.7,1.6h0c-0.7,0-1.4-0.5-1.6-1.2c-0.7-2.2-2.6-6.8-6.7-7.2c-0.7-0.1-1.2-0.5-1.4-1.2c-1.6-5.4-7.5-28.4,1.8-36.1
			C225.7,67.3,232.1,68.5,234.8,69.5z"/>
		<polygon class="st31" points="290.4,188.1 277,181 258.1,192.4 235.1,182.1 227,188.1 246.6,214.9 258.1,196.9 268.4,214.9 		"/>
		<polygon class="st32" points="287.8,187.4 276.6,177.4 258.1,192.4 239.5,177.4 228.3,187.4 247.4,211.1 258.1,193.1 268.7,211.1 
					"/>
		<g>
			<path class="st33" d="M177.8,349.5l-10.3,48.6c-0.7,3.4,1.2,6.9,4.5,8l88,28.6c3.7,1.2,7.7-1.2,8.5-5.2l12.3-63.6
				c0.7-3.8-1.8-7.5-5.5-8.1l-90-13.6C181.8,343.6,178.5,346,177.8,349.5z"/>
			<path class="st34" d="M177.5,349.3l-10,47.4c-0.7,3.4,1.2,6.7,4.4,7.8l85.7,27.9c3.7,1.2,7.5-1.2,8.2-5l11.9-62
				c0.7-3.7-1.7-7.3-5.4-7.9l-87.7-13.3C181.4,343.7,178.2,345.9,177.5,349.3z"/>
			<path class="st34" d="M227.5,392c-6.4-5.5-10-13-14.2-20.1c-4.6-7.9-9.2-16.1-11.2-25.1l-17.4-2.6c-3.3-0.5-6.5,1.7-7.2,5.2
				l-10,47.4c-0.7,3.4,1.2,6.7,4.4,7.8l85.7,27.9c3.7,1.2,7.5-1.2,8.2-5l6.8-35.2C259,398.7,239.5,402.3,227.5,392z"/>
			<path class="st35" d="M246.1,420.4c-0.3-4.5-1-6.1-7.8-10.1c-5.8-2.3-17-16.9-18.6-18.6c-4.5-4.5-8.9-9.1-12.8-14.1
				c-3.4-4.3-6-10.1-9.9-14c-10.2-10.1-11.9,10.7-11.8,17.2c0.1,6.1-0.2,12.4,0.4,18.4c0.4,3.7,1.7,7.1,2.9,10.5l53.6,17.4
				C242.6,425.4,246.3,422.7,246.1,420.4z"/>
			<path class="st36" d="M227.2,363.7c0,1.5-1.4,2.8-3.1,2.8c-1.7,0-3.1-1.2-3.1-2.8c0-1.5,1.4-2.8,3.1-2.8
				C225.8,360.9,227.2,362.2,227.2,363.7z"/>
		</g>
		<path class="st10" d="M191.1,408c0,0,27.4-3.1,31.2-14.1C222.3,393.9,189.9,373.6,191.1,408z"/>
		<g>
			<path class="st18" d="M198.5,389.7c0,0-3.9,19.9-4.5,22.3c-1,4.2,0.4,4.3,8.4,20.9c0.3,0.6,1,1,1.7,0.8c1.3-0.3,3.3-1,4.1-2.4
				c0,0,3.8,6.3,6.2,3.7c1.1-1.2,2.3-2.9,2.3-2.9s1.9,3,4.2,2.6c1.5-0.2,3.2-2.9,3.8-5.2c0,0,2.9,2.3,4.6,1.7
				c0.9-0.3,2.1-1.5,4.2-4.7l-2.3-1.8c0,0-3.8-0.5-8.9-6.1c-2.3-2.5-1.7-5.1,0.9-4.5c3.4,0.8,2.5,2.9,7.5,6.6
				c4.5,3.3,10.7,3.6,11.8,0.6c1.8-4.9-6.5-7.5-8.8-9.5c-5-4.2-9.3-13.2-10.8-14.1c-2.6-1.6-8.3-4.2-8.5-9.5L198.5,389.7z"/>
			<path class="st37" d="M221.6,414.6c-4.9-4.6-5.1-13.4,0-17.6c-2.8-1.7-6.9-4.2-7-8.7l-16.1,1.5c0,0-3.9,19.9-4.5,22.3
				c-0.7,3-0.2,4,3.1,10.3c0.1,0,0.2,0,0.4,0c7.4-0.2,14.9,1.3,22.2-0.9c1.3-0.4,2.6-0.9,4-1.5c-0.4-0.4-0.7-0.7-1.1-1.1
				C220.9,417,220.7,415.3,221.6,414.6z"/>
			<path class="st18" d="M231.4,424.8c0,0-3.8-0.5-8.9-6.1c-2.3-2.5-1.7-5.1,0.9-4.5c3.4,0.8,2.5,2.9,7.5,6.6
				c4.5,3.3,10.7,3.6,11.8,0.6c0.4-1.2,0.3-2.2-0.2-3.1c-0.8,2.9-2.9,3.6-5,3.4c-2.5-0.2-5.5-2.1-7.1-4.2c-2.6-3.3-6.6-6.6-9.4-6.6
				c-0.7,2.7-3,6.7-5.7,5.5c-0.9,3-4,4.2-7.4,2.8c-0.9,1.5-5.4,1.6-6.8-0.5c0,0-4.4,1.3-5.5-4.3c-0.4-2.3,4.4-19.2,4.1-24.9
				l-1.2,0.1c0,0-3.9,19.9-4.5,22.3c-1,4.2,1.1,9.8,8.4,20.9c0.4,0.6,1,1,1.7,0.8c1.3-0.3,3.3-1,4.1-2.4c0,0,3.8,6.3,6.2,3.7
				c1.1-1.2,2.3-2.9,2.3-2.9s1.9,3,4.2,2.6c1.5-0.2,3.2-2.9,3.8-5.2c0,0,2.9,2.3,4.6,1.7c0.9-0.3,2.4-0.1,4.5-5.3L231.4,424.8z"/>
			<path class="st38" d="M231.4,424.8c0,0-1.6-0.2-4-1.8c-1.6,1.2-3.6,1.9-6.1,2c-1.7,1.6-4.1,2.6-7.2,2.6c-0.6,0-1.2-0.1-1.8-0.1
				c-1.2,0.4-2.5,0.7-4.1,0.7c-2.1,0-3.8-0.5-5.3-1.2c-1.1,0.4-2.3,0.7-3.6,0.7H199c1,1.6,2.1,3.4,3.4,5.4c0.4,0.6,1,1,1.7,0.8
				c1.3-0.3,3.3-1,4.1-2.4c0,0,3.8,6.3,6.2,3.7c1.1-1.2,2.3-2.9,2.3-2.9s1.9,3,4.2,2.6c1.5-0.2,3.2-2.9,3.8-5.2c0,0,2.9,2.3,4.6,1.7
				c0.9-0.3,2.4-0.1,4.5-5.3L231.4,424.8z"/>
			<path class="st38" d="M242.5,418.3c-0.8,2.9-2.9,3.6-5,3.4c-2.2-0.2-7.2-2.3-7.5-1.7c0.3,0.3,0.6,0.5,1,0.8
				c4.5,3.3,10.7,3.6,11.8,0.6C243.1,420.3,243,419.2,242.5,418.3z"/>
			<path class="st39" d="M224.5,430.8c0.2-0.4,0.3-0.7,0.4-1.1c-0.4-1.1-6.2-8.6-7.9-10.9C216.8,419.2,221.9,427.8,224.5,430.8z"/>
			<path class="st39" d="M216.1,433.2c0.2-0.4,0.6-0.6,0.7-1c-0.4-1.1-6.5-8.7-8.2-11C208.4,421.6,213.5,430.2,216.1,433.2z"/>
			<path class="st39" d="M207.6,432.2c0,0,0.6-0.4,0.7-0.8c-0.4-1-4.7-6-6.3-8.3C201.7,423.6,205.1,429.4,207.6,432.2z"/>
			<path class="st40" d="M235.3,416.1c2-2.5,6.4,1.3,6.5,1.6c0,0,0.2,2.6-3.1,3.4c-1.4-0.4-2.1-1.1-2.8-1.7
				C234.7,418,234.7,416.8,235.3,416.1z"/>
		</g>
		<path class="st12" d="M185,200.3c0,0-33.2,109-30.1,121.3c3.2,12.2,33.5,80.3,36.2,86.5c0,0,9.9-14.4,31.2-14.1
			c0,0-36.5-68.8-37.3-71.8c-0.8-3,19.5-55.6,19.9-64.5S211.7,215.5,185,200.3z"/>
		<path class="st13" d="M202.6,221.2c-0.5,12.2-0.9,32.5-8,50.1c-11.9,29.3-9.7,43.3-10.3,49.9c0.2,0.1,0.5,0.2,0.8,0.3
			c0.7-6.4,19.5-55.4,19.9-63.9C205.2,251.9,208,235.9,202.6,221.2z"/>
		<path class="st13" d="M194,390.7c-6.4-7.2-10.7-14.5-14.6-23.3c-4.8-10.6-9.8-20.5-17.7-28c0,0-0.1,0-0.1-0.1
			c10,24.6,27.5,64,29.6,68.7c0,0,3.4-4.9,10.3-8.9C198.9,396.4,196.5,393.5,194,390.7z"/>
		<path class="st12" d="M324.3,198.1c0,0-25.3,17.7-17.5,59.9c0,0,23.6,40.6,26.1,46.2c2.4,5.6-3.3,25.5-3.3,25.5s18.5,6.9,3.8,27.8
			c0,0,37.8-24.6,32.2-49.4C361.2,288,326.6,200.8,324.3,198.1z"/>
		<path class="st13" d="M343.6,328.7c-4.8,0.9-9.9-0.8-12.7-4.3c-0.7,3.1-1.3,5.2-1.3,5.2s18.5,6.9,3.8,27.8c0,0,30.7-20,32.6-42.1
			C361.6,323.4,353.1,327.1,343.6,328.7z"/>
		<path class="st13" d="M333.1,304.9c0.5-1.6,0.8-3.3,0.6-5c-0.6-5.2-2.1-10.1-4.5-14.8c-5-9.8-11.1-19.4-14.4-30
			c-3.4-11-5.3-24.2-4.9-37.1c-3.9,9.5-6.3,22.7-3.1,40c0,0,23.6,40.6,26.1,46.2C333,304.4,333.1,304.6,333.1,304.9z"/>
		<g>
			<path class="st41" d="M297.5,286.9c-1.1-1.9-4.4-6.1-4.6-6.8c-12.3,4.5-24.2,9.4-26.7,32.8c-0.3,2.8-0.5,5.8-0.5,9.2c0,0,0,0,0,0
				c0,0.6,0,1.2,0,1.8c0.3,22.3,17.1,29.5,31.4,31.5c-0.5-1,3.3-2.4,7.7-3.7l3.5-56.3C303.5,295.1,300,291.3,297.5,286.9z"/>
			<path class="st22" d="M300.3,283.1c-1.4,0.5-8.3,2.6-9.8,3.1c0.6-3.7,1.9-5.9,1.9-5.9c-12.1,4.5-23.8,9.6-26.2,32.7
				c-0.3,2.8-0.5,5.8-0.5,9.2c0,0,0,0,0,0c0,0.6,0,1.2,0,1.8c0.3,22.3,17.1,29.5,31.4,31.5c-1.2-2.3-2.2-4.8-3.1-7.3
				c11.9,1.9,23,0.6,23,0.6c26,2.2,33.4-25.9,25.1-46.9c-3.4-8.6-13.6-14.7-21.9-16.7C311.1,283,301.9,282.5,300.3,283.1z"/>
			<path class="st42" d="M339,340c3.7-4.8,5.6-10.9,6.1-16.9c0,0,0,0,0,0c0.3-2.9,0.3-5.9,0-8.8c-3.5,0.9-7,1.5-10.6,2
				c-1.6,0.2-14.4,2-14.6,0.9c-0.5-3.1-4-5.4-7-3.9c-1.2,0.6-2.1,1.7-2.7,2.9c-0.5,1-4.4-0.7-5.3-1.1c-10.2-9.2-10.7-24.1-8.8-30.6
				c-1.8,0.6-3.7,1.1-5.5,1.7c-1.9,0.6-9.8,12.5-10.8,33c-0.3,4.8,1,10,3.3,14.3c1.2,2.2,3.1,4,4.8,5.8c1.9,2,3.8,4,5.9,5.8
				c0.5,1.1,1,2.2,1.6,3.3c1.2,0.2,2.4,0.3,3.5,0.4c0,0,0,0,0,0c6,0.6,12.2,0.7,18.3,0C325.5,349.5,333.7,346.8,339,340z"/>
			<g>
				<path class="st43" d="M342.7,303.1l-47.2,2.4v2l48.9,2.2C344,307.4,343.4,305.2,342.7,303.1z"/>
				<path class="st43" d="M345.2,322.4l-49.7,2.5v2l48.6,2.1C344.6,326.9,345,324.6,345.2,322.4z"/>
				<path class="st43" d="M344.8,312l-53.6,2.6v2l54.1,3.3C345.3,317.3,345.2,314.6,344.8,312z"/>
			</g>
			<g>
				<path class="st44" d="M277.4,323.8c0-27.9,8.3-36.4,8.4-37.2c-6.5,6.4-10.9,17-10.6,37.2c0.2,14.7,6.7,23.2,15,28.1
					C290.1,351.4,277.4,341,277.4,323.8z"/>
			</g>
		</g>
		<path class="st44" d="M342.6,315.6c-1.3,1.9-2.5,3.7-4.1,5.4c-6,6.4-17.5,4-19.2-4.4c-0.9-4.3-5.6-6.3-8.8-3.2
			c-1.2,1.2-1.8,2.8-1.9,4.5c-0.1,1.8-0.1,3.5-0.1,5.3c0.1,12.1-14.3,15.1-21,6.5c-2.1-2.6-5.6-4.7-9-2.8c-6.6,3.6-6,10.1-6,16.9
			c6.3,7.4,16,10.6,24.7,11.8c-0.5-1,3.3-2.4,7.7-3.7l0.2-2.6c2.9,0.1,5.8,0.1,8.7-0.1c2.1-0.1,3.4-0.3,3.4-0.3
			c0.6,0.1,1.3,0.1,1.9,0.1c0.4,0,0.8,0,1.1,0c0.1,0,0.1,0,0.2,0c20.1-0.3,27.7-20,24.4-38.2C343.9,312.1,343.5,314.3,342.6,315.6z"
			/>
		<g>
			<path class="st18" d="M333.7,331.1c0,0-2.9,3.9-5.7,3.3s-1.1-2.1-6.1-5.8c-5-3.7-4.1-10.6-5-12.2c-0.9-1.6-6.7-1.7-5.3,7.2
				c0,0,0.8,4.4,3.3,7.1c2.4,2.8,2.2,4.8-0.4,4.8c-3.2,0.1-2.1-0.5-11,1.9c-6.3,1.7-9.5,0.6-9.9,0.5c-3-0.9-9.2-10.1-13.3-6.9
				c-4.5,3.4,10.3,14.2,11.9,14.2s14.1-1.5,14.1-1.5s-9.4,1.7-13.8,1.7c-4.3,0-11.9-11-15.7-9c-4.4,2.3,5.7,13.3,10.7,14.4
				c5,1.1,16.7-1.1,18.7-1.5c0,0-14,2.3-17.7,1.9c-4.5-0.5-10-7.4-10.6-7.3c-0.4,0-2.9,3,0,6.8c1.3,1.7,4.2,3.8,8.4,5.5
				c0.6,0.3,1.3,0.4,2,0.4c2.9,0,9.6,0.4,17.1-2c0,0-8,2.5-16.8,2.1c-2.7-0.1-7.2-2.6-7.3-2.7c-0.4-0.3-1.3,4,3.8,5.9
				c2.4,0.9,6.2,1.5,12.2,0.7c9-1.2,10.4-3.7,12.2-4.2c1.8-0.5,10.6-4.1,12.1-4.2c1.5-0.1,16.8-1.9,19-9.2S337.7,332.5,333.7,331.1z
				"/>
			<path class="st37" d="M333.5,332.4c0,0-2.5,3.4-5,2.9c-0.7-0.2-1.1-0.4-1.4-0.7c0.6,4.9-0.1,8.9-2.3,13.2c-0.4,0.8-9,4.8-9.5,5.6
				c1-0.1,4.8-2.4,8.5-2.6c6.6-0.5,14.7-4.1,15.9-7.8C341.5,336.5,336.9,333.6,333.5,332.4z"/>
			<path class="st39" d="M305.1,343.8c-3.5,0.6-9.2,1.6-12.1,1.5c-3.4-0.1-8.7-5.4-8.9-5.6c2.5,3.7,4.8,5.6,7.7,6.4
				C295.6,347.2,305.1,343.8,305.1,343.8z"/>
			<path class="st39" d="M301.7,350c-3.5,0.6-9.6,1.3-12.5,1.3c-3.4-0.1-8.6-5-8.8-5.2c2.5,3.7,4.8,5.2,7.7,6
				C292,353.2,301.7,350,301.7,350z"/>
			<path class="st39" d="M302.6,355.2c-4.6,1.1-8.1,1.3-11.5,1.4c-4.9,0.1-7.7-1.5-7.9-1.7c2.7,2,4.9,2.4,7.5,2.6
				C295.1,358,302.6,355.2,302.6,355.2z"/>
			<path class="st38" d="M290,343.7c-0.5-2.6-0.3-5.3,0.8-7.7c-3.2-2.8-7.4-7.4-10.6-5c-3.6,2.8,5.2,10.2,9.7,13
				C289.9,343.9,290,343.8,290,343.7z"/>
			<path class="st38" d="M289.1,349.9c-0.2-1.9,0-3.8,0.6-5.5c-4.3-2.6-9.9-9.6-13-8c-4.4,2.3,5.7,13.3,10.7,14.4
				c0.4,0.1,0.9,0.2,1.5,0.2C289,350.6,289.1,350.2,289.1,349.9z"/>
			<path class="st38" d="M288.9,351.1c-0.2,0-0.3,0-0.5,0c-4.5-0.5-10-7.4-10.6-7.3c-0.4,0-2.9,3,0,6.8c1.3,1.7,4.2,3.8,8.4,5.5
				c0.6,0.3,1.3,0.4,2,0.4c0.3,0,0.7,0,1,0C288.8,354.8,288.7,352.9,288.9,351.1z"/>
			<path class="st38" d="M289.6,357.4c-0.1-0.3-0.2-0.5-0.3-0.8c-0.3,0-0.5,0-0.8,0c-2.7-0.1-7.2-2.6-7.3-2.7
				c-0.4-0.3-1.3,4,3.8,5.9c1.3,0.5,3.1,0.9,5.4,1C290,359.8,289.7,358.6,289.6,357.4z"/>
			<path class="st40" d="M281.2,338.6c0.5,0.4,0.7,1,0.5,1.6c-0.4,0.9-1.2,2.1-2.8,2.3c-0.4,0-4.5-3.8-1.7-5.4
				C278,336.6,280,337.8,281.2,338.6z"/>
			<path class="st40" d="M281.5,348.1c0,0-0.8,2.5-3,2.4c-0.3,0-3.2-4.2-0.4-5.4C278.6,344.8,281.5,348.1,281.5,348.1z"/>
			<path class="st40" d="M281.7,355.1c-1.3,2.4,2.8,4.1,3,3.8c0.8-0.7,0.9-1.6,0.8-2.3C284.2,356.3,281.8,354.9,281.7,355.1z"/>
			<path class="st40" d="M286.3,333.7c0,0,0.6,2.3-3.1,2.8c-0.4,0.1-4.6-3.6-1.5-5.3C283.7,330.1,286.3,333.7,286.3,333.7z"/>
			<path class="st40" d="M316.1,316.5c-3.2-1.5-2.3,5.3-2,5.5c2.2,1.4,3.5-0.3,3.5-0.3s0,0,0-0.1
				C317.1,320.2,317.1,316.9,316.1,316.5z"/>
		</g>
		<path class="st12" d="M365.6,308.1c-0.2-0.8-0.4-1.7-0.7-2.6h-19c0.3,4.1-0.4,8.2-2.1,12.1c-2.5,6-9.6,14.1-11.7,15.1
			c2.9,1.3,10.4,6.1,2.1,24.3C334.3,356.9,371.2,332.9,365.6,308.1z"/>
		<g>
			<g>
				<defs>
					<path id="SVGID_9_" d="M279.5,120.1c0,0,0-10.6-8.7-9.4c-7,1-4.6,11.2-4.6,11.2S276.8,122,279.5,120.1z"/>
				</defs>
				<clipPath id="SVGID_10_">
					<use xlink:href="#SVGID_9_"  style="overflow:visible;"/>
				</clipPath>
				<path class="st45" d="M279.5,120.1c0,0,0-10.6-8.7-9.4c-7,1-4.6,11.2-4.6,11.2S276.8,122,279.5,120.1z"/>
				<linearGradient id="SVGID_11_" gradientUnits="userSpaceOnUse" x1="272.2339" y1="112.6624" x2="272.2339" y2="123.1228">
					<stop  offset="0" style="stop-color:#353746"/>
					<stop  offset="0.8817" style="stop-color:#4D4F5C"/>
				</linearGradient>
				<path class="st46" d="M267.4,117.8c0,3.3,2.1,5.9,4.8,5.9s4.8-2.7,4.8-5.9c0-3.3-2.1-5.9-4.8-5.9S267.4,114.5,267.4,117.8z"/>
				<path class="st47" d="M274.1,113.9c-2.9,0-6.2,0-8,1.5c0.5-2.2,1-4.6,3.8-5.5c6.3-2,7.8,2.9,9,5
					C277.6,114.2,276,113.9,274.1,113.9z"/>
			</g>
			<path class="st48" d="M275.5,116.3c0,0.5-0.4,1-1,1s-1-0.4-1-1c0-0.5,0.4-1,1-1S275.5,115.7,275.5,116.3z"/>
		</g>
		<g>
			<g>
				<defs>
					<path id="SVGID_12_" d="M233.7,120.1c0,0,0-10.6,8.7-9.4c7,1,4.6,11.2,4.6,11.2S236.4,122,233.7,120.1z"/>
				</defs>
				<clipPath id="SVGID_13_">
					<use xlink:href="#SVGID_12_"  style="overflow:visible;"/>
				</clipPath>
				<path class="st49" d="M233.7,120.1c0,0,0-10.6,8.7-9.4c7,1,4.6,11.2,4.6,11.2S236.4,122,233.7,120.1z"/>
				<linearGradient id="SVGID_14_" gradientUnits="userSpaceOnUse" x1="240.9991" y1="111.9834" x2="240.9991" y2="123.4425">
					<stop  offset="0" style="stop-color:#353746"/>
					<stop  offset="0.8817" style="stop-color:#4D4F5C"/>
				</linearGradient>
				<path class="st50" d="M245.8,117.8c0,3.3-2.1,5.9-4.8,5.9c-2.7,0-4.8-2.7-4.8-5.9c0-3.3,2.2-5.9,4.8-5.9
					C243.7,111.8,245.8,114.5,245.8,117.8z"/>
				<path class="st51" d="M239.1,113.9c2.9,0,6.3,0,8.1,1.5c-0.5-2.2-2.4-5.3-5.3-5.7c-3.8-0.5-6.3,3.1-7.5,5.2
					C235.6,114.2,237.2,113.9,239.1,113.9z"/>
			</g>
			<circle class="st48" cx="242.8" cy="116.4" r="1"/>
		</g>
	</g>
</g>
</svg>
