<svg id="Layer_5" enable-background="new 0 0 64 64" height="512" viewBox="0 0 64 64" width="512" xmlns="http://www.w3.org/2000/svg"><g><g><g><path d="m26 58v4h-8v-4.25c.64.16 1.31.25 2 .25z" fill="#4fc1e9"/></g><g><path d="m46 57.75v4.25h-8v-4h5 1c.69 0 1.36-.09 2-.25z" fill="#4fc1e9"/></g><g><path d="m48.75 39.32c2.04 2.69 3.25 6.04 3.25 9.68v1c0 3.73-2.55 6.86-6 7.75-.64.16-1.31.25-2 .25h-1v-6l-1.41-1.41c-.38-.38-.89-.59-1.42-.59h-.17c-1.1 0-2 .9-2 2v-10h-2l.9-8.97c3.3.18 6.33 1.36 8.8 3.24 1.15.88 2.17 1.9 3.05 3.05z" fill="#4fc1e9"/></g><g><path d="m32 37 4 5h-8z" fill="#4fc1e9"/></g><g><path d="m26 52h-5c-1.66 0-3-1.34-3-3v-7c0 .53.21 1.04.59 1.41l7.41 7.42z" fill="#4fc1e9"/></g><g><path d="m15.25 39.32c.88-1.15 1.9-2.17 3.05-3.05 2.47-1.88 5.5-3.06 8.8-3.24l.9 8.97h-2v3.17l-4.59-4.58c-.37-.38-.88-.59-1.41-.59s-1.04.21-1.41.59c-.38.37-.59.88-.59 1.41v7c0 1.66 1.34 3 3 3h5v6h-6c-.69 0-1.36-.09-2-.25-3.45-.89-6-4.02-6-7.75v-1c0-3.64 1.21-6.99 3.25-9.68z" fill="#4fc1e9"/></g><g><path d="m36.9 33.03-.9 8.97-4-5 4-4c.3 0 .6.01.9.03z" fill="#3bafda"/></g><g><path d="m32 37-4 5-.9-8.97c.3-.02.6-.03.9-.03z" fill="#3bafda"/></g><g><path d="m48.98 15.73c-.33.55-.3 1.23.03 1.77 1.11 1.8 1.94 3.78 2.44 5.89.15.62.61 1.12 1.23 1.28l.05.01c.75.19 1.27.86 1.27 1.62v3.4c0 .76-.52 1.43-1.27 1.62l-.05.01c-.62.16-1.08.66-1.23 1.28-.5 2.11-1.33 4.09-2.44 5.89-.15.25-.25.53-.26.82-.88-1.15-1.9-2.17-3.05-3.05 1.46-2.41 2.3-5.24 2.3-8.27 0-3.81-1.33-7.3-3.55-10.05.37-.09.7-.27.96-.54.37-.36.59-.86.59-1.41 0-1.1-.9-2-2-2 0-.91-.1-1.79-.29-2.64l.61-.37c.65-.39 1.5-.29 2.04.25l2.4 2.4c.54.54.64 1.39.25 2.04z" fill="#fcd770"/></g><g><path d="m20.29 11.36c-.19.85-.29 1.73-.29 2.64-.55 0-1.05.22-1.41.59-.37.36-.59.86-.59 1.41 0 .94.66 1.74 1.55 1.95-2.22 2.75-3.55 6.24-3.55 10.05 0 3.03.84 5.86 2.3 8.27-1.15.88-2.17 1.9-3.05 3.05-.01-.29-.11-.57-.26-.82-1.11-1.8-1.94-3.78-2.44-5.89-.15-.62-.61-1.12-1.23-1.28l-.05-.01c-.75-.19-1.27-.86-1.27-1.62v-3.4c0-.76.52-1.43 1.27-1.62l.05-.01c.62-.16 1.08-.66 1.23-1.28.5-2.11 1.33-4.09 2.44-5.89.33-.54.36-1.22.03-1.77l-.03-.05c-.39-.65-.29-1.5.25-2.04l2.4-2.4c.54-.54 1.39-.64 2.04-.25z" fill="#fcd770"/></g><g><path d="m44 18v6c0-.83-.34-1.58-.88-2.12s-1.29-.88-2.12-.88h-1v-3z" fill="#656d78"/></g><g><path d="m20 18h4v3h-1c-1.66 0-3 1.34-3 3z" fill="#656d78"/></g><g><path d="m38 14h-4v-11.82-.01c4.81.8 8.65 4.47 9.71 9.19.19.85.29 1.73.29 2.64z" fill="#ff826e"/></g><g><path d="m26 14h-6c0-.91.1-1.79.29-2.64.51-2.26 1.65-4.27 3.22-5.85 1.72-1.72 3.97-2.92 6.49-3.34v.01 11.82z" fill="#ff826e"/></g><g><path d="m34 2.18v11.82h-4v-11.82-.01c.65-.11 1.32-.17 2-.17s1.35.06 2 .17z" fill="#fc6e51"/></g><g><path d="m46 16c0 .55-.22 1.05-.59 1.41-.26.27-.59.45-.96.54-.14.03-.29.05-.45.05h-4-16-4c-.16 0-.31-.02-.45-.05-.89-.21-1.55-1.01-1.55-1.95 0-.55.22-1.05.59-1.41.36-.37.86-.59 1.41-.59h6 4 4 4 6c1.1 0 2 .9 2 2z" fill="#fc6e51"/></g><g><path d="m38 58v4h-12v-4-6-1.17-5.66-3.17h2 8 2v10c-.83 0-1.58.34-2.12.88s-.88 1.29-.88 2.12.34 1.58.88 2.12 1.29.88 2.12.88z" fill="#e6e9ed"/></g><g><path d="m26 45.17v5.66l-7.41-7.42c-.38-.37-.59-.88-.59-1.41s.21-1.04.59-1.41c.37-.38.88-.59 1.41-.59s1.04.21 1.41.59z" fill="#aab2bd"/></g><g><path d="m43 52v6h-5c-.83 0-1.58-.34-2.12-.88s-.88-1.29-.88-2.12.34-1.58.88-2.12 1.29-.88 2.12-.88c0-1.1.9-2 2-2h.17c.53 0 1.04.21 1.42.59z" fill="#f0d0b4"/></g><g><path d="m35 33h1l-4 4-4-4h1z" fill="#f0d0b4"/></g><g><path d="m43.12 21.88c.54.54.88 1.29.88 2.12 0 1.66-1.34 3-3 3h-1v-6h1c.83 0 1.58.34 2.12.88z" fill="#f0d0b4"/></g><g><path d="m24 27v-6-3h16v3 6 1c0 2.76-2.24 5-5 5h-6c-2.76 0-5-2.24-5-5z" fill="#f0d0b4"/></g><g><path d="m24 21v6h-1c-.83 0-1.58-.34-2.12-.88s-.88-1.29-.88-2.12c0-1.66 1.34-3 3-3z" fill="#f0d0b4"/></g></g><g><circle cx="28" cy="22" r="1"/><circle cx="36" cy="22" r="1"/><path d="m34 28h-6v2h6c1.654 0 3-1.346 3-3h-2c0 .551-.448 1-1 1z"/><path d="m52.92 23.699c-.243-.061-.435-.267-.498-.538-.517-2.192-1.376-4.272-2.557-6.185-.146-.237-.157-.519-.001-.779.632-1.053.467-2.394-.401-3.262l-2.398-2.398c-.729-.729-1.791-.956-2.737-.637-1.723-5.163-6.593-8.9-12.328-8.9s-10.605 3.737-12.327 8.901c-.946-.319-2.008-.092-2.737.637l-2.398 2.398c-.868.868-1.033 2.209-.374 3.307.129.216.118.497-.028.735-1.181 1.912-2.04 3.993-2.557 6.185-.063.271-.255.477-.555.552-1.192.296-2.024 1.362-2.024 2.589v3.392c0 1.228.832 2.293 2.08 2.605.243.061.435.267.498.538.517 2.192 1.376 4.272 2.556 6.184.024.039.023.083.04.124-1.99 2.782-3.174 6.178-3.174 9.853v1c0 3.909 2.51 7.235 6 8.475v4.525h30v-4.525c3.49-1.239 6-4.565 6-8.475v-1c0-3.675-1.184-7.071-3.174-9.855.017-.04.016-.084.039-.122 1.181-1.912 2.04-3.993 2.557-6.185.063-.271.255-.477.555-.552 1.191-.297 2.023-1.363 2.023-2.59v-3.392c0-1.227-.832-2.293-2.08-2.605zm-13.752 8.608c1.127-1.091 1.832-2.617 1.832-4.307 2.206 0 4-1.794 4-4v-3.47c1.297 2.26 2 4.842 2 7.47 0 2.384-.565 4.721-1.64 6.823-1.845-1.222-3.941-2.089-6.192-2.516zm2.832 24.693h-4c-1.103 0-2-.897-2-2s.897-2 2-2h1v-1c0-.551.448-1 1-1h.172c.263 0 .521.107.707.293l1.121 1.121zm-5-5.863c-1.721.446-3 2.004-3 3.863 0 1.858 1.279 3.411 3 3.858v2.142h-10v-18h10zm-12-2.723-5.707-5.707c-.191-.192-.293-.436-.293-.707s.102-.515.293-.707c.383-.383 1.031-.383 1.414 0l4.293 4.293zm-6-3.172 5.758 5.758h-3.758c-1.103 0-2-.897-2-2zm-.36-10.419c-1.075-2.102-1.64-4.439-1.64-6.823 0-2.629.703-5.21 2-7.47v3.47c0 2.206 1.794 4 4 4 0 1.69.705 3.216 1.832 4.307-2.251.427-4.347 1.294-6.192 2.516zm1.36-19.823h24c.552 0 1 .449 1 1s-.448 1-1 1h-24c-.552 0-1-.449-1-1s.448-1 1-1zm12 23.601 1.919 2.399h-3.839zm0-3.015-1.586-1.586h3.172zm3-3.586h-6c-2.206 0-4-1.794-4-4v-9h14v9c0 2.206-1.794 4-4 4zm-12-6c-1.103 0-2-.897-2-2s.897-2 2-2zm0-6c-.732 0-1.409.212-2 .556v-1.556h2zm18 2c1.103 0 2 .897 2 2s-.897 2-2 2zm2-1.444c-.591-.344-1.268-.556-2-.556v-1h2zm-12.34 16.518-1.909 2.386-.477-4.772zm2.68 0 2.386-2.386-.477 4.772zm9.609-24.074h-3.949v-4h-2v4h-2v-9.574c4.3 1.223 7.534 4.993 7.949 9.574zm-9.949-9.949v9.949h-2v-9.949c.33-.03.662-.051 1-.051s.67.021 1 .051zm-4 .375v9.574h-2v-4h-2v4h-3.949c.415-4.581 3.649-8.351 7.949-9.574zm-15.475 28.954c-.236-1.002-.987-1.776-2.018-2.034-.298-.075-.507-.342-.507-.65v-3.392c0-.308.209-.576.564-.665.974-.244 1.725-1.018 1.961-2.02.466-1.982 1.244-3.863 2.311-5.591.541-.876.558-1.954.015-2.86-.158-.264-.117-.601.101-.819l2.398-2.398c.218-.218.554-.26.819-.101l.022.013c-.071.429-.121.865-.149 1.307-1.183.403-2.042 1.513-2.042 2.83 0 .914.42 1.724 1.067 2.275-1.98 2.839-3.067 6.245-3.067 9.725 0 2.818.703 5.576 2.026 8.038-.523.443-1.011.923-1.476 1.425-.914-1.588-1.604-3.291-2.025-5.083zm-.525 17.62v-1c0-7.663 5.779-13.992 13.207-14.882l.688 6.882h-1.895v1.758l-2.879-2.879c-1.133-1.134-3.109-1.134-4.242 0-.566.566-.879 1.32-.879 2.121v7c0 2.206 1.794 4 4 4h4v4h-5c-3.859 0-7-3.14-7-7zm6 8.941c.329.037.662.059 1 .059h5v2h-6zm26 2.059h-6v-2h5c.338 0 .671-.022 1-.059zm6-11c0 3.86-3.141 7-7 7v-4.142c1.721-.447 3-2 3-3.858v-7h-2v7c0 .974-.699 1.787-1.622 1.964l-1.085-1.085c-.566-.567-1.32-.879-2.121-.879h-.172c-.351 0-.687.064-1 .175v-8.175h-1.895l.688-6.882c7.428.89 13.207 7.219 13.207 14.882zm2-20.304c0 .308-.209.576-.564.665-.974.244-1.725 1.018-1.961 2.02-.421 1.791-1.11 3.494-2.024 5.083-.466-.502-.954-.982-1.476-1.425 1.322-2.463 2.025-5.221 2.025-8.039 0-3.48-1.087-6.886-3.067-9.725.647-.551 1.067-1.361 1.067-2.275 0-1.317-.859-2.427-2.042-2.829-.028-.442-.078-.878-.149-1.307l.022-.013c.266-.158.602-.117.819.101l2.398 2.398c.218.218.259.555.073.864-.516.86-.499 1.938.042 2.814 1.066 1.729 1.845 3.61 2.311 5.592.236 1.002.987 1.776 2.018 2.034.299.075.508.342.508.65z"/></g></g></svg>