<?xml version="1.0" encoding="UTF-8" standalone="no"?>
<svg
   xmlns:dc="http://purl.org/dc/elements/1.1/"
   xmlns:cc="http://creativecommons.org/ns#"
   xmlns:rdf="http://www.w3.org/1999/02/22-rdf-syntax-ns#"
   xmlns:svg="http://www.w3.org/2000/svg"
   xmlns="http://www.w3.org/2000/svg"
   xmlns:sodipodi="http://sodipodi.sourceforge.net/DTD/sodipodi-0.dtd"
   xmlns:inkscape="http://www.inkscape.org/namespaces/inkscape"
   id="Layer_3"
   enable-background="new 0 0 64 64"
   height="512"
   viewBox="0 0 64 64"
   width="512"
   style="zoom: 1;"
   version="1.1"
   sodipodi:docname="toro.svg"
   inkscape:version="1.0 (4035a4f, 2020-05-01)">
  <metadata
     id="metadata233">
    <rdf:RDF>
      <cc:Work
         rdf:about="">
        <dc:format>image/svg+xml</dc:format>
        <dc:type
           rdf:resource="http://purl.org/dc/dcmitype/StillImage" />
      </cc:Work>
    </rdf:RDF>
  </metadata>
  <defs
     id="defs231" />
  <sodipodi:namedview
     inkscape:document-rotation="0"
     pagecolor="#ffffff"
     bordercolor="#666666"
     borderopacity="1"
     objecttolerance="10"
     gridtolerance="10"
     guidetolerance="10"
     inkscape:pageopacity="0"
     inkscape:pageshadow="2"
     inkscape:window-width="1440"
     inkscape:window-height="806"
     id="namedview229"
     showgrid="false"
     inkscape:zoom="1.2349809"
     inkscape:cx="244.10455"
     inkscape:cy="259.13951"
     inkscape:window-x="0"
     inkscape:window-y="23"
     inkscape:window-maximized="0"
     inkscape:current-layer="g226" />
  <g
     id="g226"
     style="display:inline">
    <g
       id="g154"
       style="fill:#775236;fill-opacity:1">
      <path
         d="M 4,49 H 2 V 32.28 C 2,27.55 5.177,23.338 9.726,22.038 9.814,22.013 9.907,22 10,22 h 2 v 2 H 10.144 C 6.52,25.098 4,28.483 4,32.28 Z"
         fill="#a8b0bc"
         id="path152"
         style="fill:#775236;fill-opacity:1" />
    </g>
    <g
       id="g158">
      <g
         id="g156" />
    </g>
    <g
       id="g162">
      <g
         id="g160" />
    </g>
    <path
       d="M 3.2,52.9 C 2.445,52.333 2,51.444 2,50.5 V 47 l 2.342,1.171 C 5.358,48.679 6,49.718 6,50.854 V 55 Z"
       fill="#52565a"
       id="path170"
       style="fill:#5e3b28;fill-opacity:1" />
    <path
       d="M 48,56.141 V 56 l 0.328,-1.312 C 49.438,50.246 50,45.685 50,41.106 v -0.18 c -0.964,1.54 -2.232,2.895 -3.789,3.933 L 46,45 45.936,45.05 c -0.106,3.303 -0.341,6.601 -0.706,9.886 l -0.177,1.59 C 45.631,56.201 46.289,56 47,56 c 0.347,0 0.679,0.058 1,0.141 z"
       fill="#a8b0bc"
       id="path172"
       style="fill:#502d16;fill-opacity:1" />
    <path
       d="M 17.036,56.153 17,56 17.434,52.96 C 17.811,50.323 18,47.663 18,45 v -0.381 c -0.36,-0.106 -0.724,-0.194 -1.08,-0.312 l -0.79,-0.263 c -1.561,3.822 -2.615,7.838 -3.128,11.945 L 13,56 h -1 c 0.735,0 1.417,0.204 2.005,0.552 C 14.594,56.21 15.27,56 16,56 c 0.361,0 0.704,0.063 1.036,0.153 z"
       fill="#a8b0bc"
       id="path174"
       style="fill:#502d16;fill-opacity:1" />
    <path
       d="m 52,34 v 0.043 c 0,4.347 -2.172,8.406 -5.789,10.817 L 46,45 45.936,45.05 c -0.106,3.303 -0.341,6.601 -0.706,9.886 L 45,57 h -4 l -0.292,-1.314 c -0.852,-3.834 -1.387,-7.732 -1.6,-11.654 L 39.106,44 H 39 l -0.92,0.307 C 34.715,45.428 31.192,46 27.645,46 h -0.29 c -3.547,0 -7.071,-0.572 -10.436,-1.693 l -0.79,-0.263 c -1.561,3.822 -2.615,7.838 -3.128,11.945 L 12.985,56.123 10.173,56.694 7,44 6.094,30.41 C 6.032,29.476 6.116,28.537 6.343,27.629 L 6.45,27.202 c 0.928,-3.714 4.104,-6.434 7.916,-6.78 L 30,19 V 16.292 C 30,13.922 31.922,12 34.292,12 H 37"
       fill="#e3e4e5"
       id="path176"
       style="fill:#775236;fill-opacity:1" />
    <path
       d="M 36,29 35.02,15.275 C 35.007,15.092 35,14.908 35,14.725 35,10.458 38.458,7 42.724,7 h 6.551 C 53.542,7 57,10.458 57,14.724 c 0,0.184 -0.007,0.367 -0.02,0.55 L 56,29"
       fill="#ebf7fe"
       id="path178"
       style="fill:#856040;fill-opacity:1" />
    <path
       d="m 43,24 c 1.075,0 2.09,0.178 3,0.488 0.91,-0.31 1.925,-0.488 3,-0.488 3.866,0 7,2.239 7,5 0,2.761 -3.134,5 -7,5 -1.075,0 -2.09,-0.178 -3,-0.488 -0.91,0.31 -1.925,0.488 -3,0.488 -3.866,0 -7,-2.239 -7,-5 0,-2.761 3.134,-5 7,-5 z"
       fill="#c66b60"
       id="path182"
       style="fill:#5e3b28;fill-opacity:1" />
    <path
       d="M 49.276,7 H 48.709 C 47.048,8.466 46,10.611 46,13 c 0,4.418 3.582,8 8,8 0.913,0 1.786,-0.161 2.603,-0.442 L 56.98,15.275 C 56.993,15.092 57,14.908 57,14.725 57,10.458 53.542,7 49.276,7"
       fill="#52565a"
       id="path184"
       style="fill:#775236;fill-opacity:1" />
    <g
       id="g190">
      <path
         d="M 51.5,30 C 50.673,30 50,29.327 50,28.5 50,27.673 50.673,27 51.5,27 c 0.827,0 1.5,0.673 1.5,1.5 0,0.827 -0.673,1.5 -1.5,1.5 z"
         fill="#e47c6e"
         id="path188"
         style="fill:#000000;fill-opacity:0.76999998" />
    </g>
    <g
       id="g194">
      <path
         d="M 40.5,30 C 39.673,30 39,29.327 39,28.5 39,27.673 39.673,27 40.5,27 c 0.827,0 1.5,0.673 1.5,1.5 0,0.827 -0.673,1.5 -1.5,1.5 z"
         fill="#e47c6e"
         id="path192"
         style="fill:#000000;fill-opacity:1" />
    </g>
    <g
       id="g198"
       style="fill:#000000;fill-opacity:1">
      <path
         d="M 52.5,18 C 51.673,18 51,17.327 51,16.5 51,15.673 51.673,15 52.5,15 c 0.827,0 1.5,0.673 1.5,1.5 0,0.827 -0.673,1.5 -1.5,1.5 z"
         fill="#243242"
         id="path196"
         style="fill:#000000;fill-opacity:1" />
    </g>
    <g
       id="g202"
       style="fill:#000000;fill-opacity:1">
      <path
         d="M 39.5,18 C 38.673,18 38,17.327 38,16.5 38,15.673 38.673,15 39.5,15 c 0.827,0 1.5,0.673 1.5,1.5 0,0.827 -0.673,1.5 -1.5,1.5 z"
         fill="#243242"
         id="path200"
         style="fill:#000000;fill-opacity:1" />
    </g>
    <path
       d="m 16,56 c 2.209,0 4,1.791 4,4 v 2 h -8 v -2 c 0,-2.209 1.791,-4 4,-4 z"
       fill="#243242"
       id="path204"
       style="fill:#000000" />
    <path
       d="m 12,56 c 2.209,0 4,1.791 4,4 v 2 H 8 v -2 c 0,-2.209 1.791,-4 4,-4 z"
       fill="#52565a"
       id="path206"
       style="fill:#000000" />
    <g
       id="g210"
       style="fill:#000000">
      <path
         d="m 11,59 h 2 v 3 h -2 z"
         fill="#243242"
         id="path208"
         style="fill:#000000" />
    </g>
    <path
       d="m 47,56 c 2.209,0 4,1.791 4,4 v 2 h -8 v -2 c 0,-2.209 1.791,-4 4,-4 z"
       fill="#243242"
       id="path212"
       style="fill:#000000" />
    <path
       d="m 43,56 c 2.209,0 4,1.791 4,4 v 2 h -8 v -2 c 0,-2.209 1.791,-4 4,-4 z"
       fill="#52565a"
       id="path214"
       style="fill:#000000" />
    <g
       id="g218"
       style="fill:#000000">
      <path
         d="m 42,59 h 2 v 3 h -2 z"
         fill="#243242"
         id="path216"
         style="fill:#000000" />
    </g>
    <path
       id="path865"
       d="m 45.965393,32.122252 c -3.379216,0 -6.127597,-1.650312 -6.127597,-3.678448 0,-0.180415 0.243913,-0.326838 0.544451,-0.326838 0.300534,0 0.544449,0.146423 0.544449,0.326838 0,1.667742 2.260553,3.024773 5.038697,3.024773 2.778871,0 5.039425,-1.357031 5.039425,-3.024773 0,-0.180415 0.243914,-0.326838 0.54445,-0.326838 0.300536,0 0.544449,0.146423 0.544449,0.326838 0,2.028573 -2.749106,3.678448 -6.128324,3.678448 z"
       style="fill:#bdbcbc;stroke-width:0.56245" />
    <path
       id="path847"
       d="m 39.567781,16.385147 c 0,-0.310763 0.250927,-0.562684 0.562316,-0.562684 0.31248,0 0.562684,0.251935 0.562684,0.562684 0,0.310395 -0.250573,0.562316 -0.562684,0.562316 -0.311374,3.67e-4 -0.562316,-0.251554 -0.562316,-0.562316 z"
       style="clip-rule:evenodd;fill:#ffffff;fill-rule:evenodd;stroke-width:0.368128" />
    <path
       style="clip-rule:evenodd;display:inline;fill:#ffffff;fill-rule:evenodd;stroke-width:0.368127"
       d="m 52.512791,16.281434 c 0,-0.310763 0.250927,-0.562684 0.562316,-0.562684 0.31248,0 0.562684,0.251935 0.562684,0.562684 0,0.310395 -0.250573,0.562316 -0.562684,0.562316 -0.311374,3.67e-4 -0.562316,-0.251554 -0.562316,-0.562316 z"
       id="path847-9" />
    <g
       id="g793"
       transform="matrix(0.45762371,0,0,0.42225195,20.020324,0.08366991)">
      <path
         id="path789"
         d="m 64.859,16.403 c 0,0 12.515,-6.202 15.297,-16.403 0,0 5.062,15.065 -2.028,24.875 -0.001,0 -4.897,-7.037 -13.269,-8.472 z"
         style="fill:#333333" />
      <path
         id="path791"
         d="m 48.577,16.403 c 0,0 -12.515,-6.202 -15.297,-16.403 0,0 -5.062,15.065 2.028,24.875 0,0 4.897,-7.037 13.269,-8.472 z"
         style="fill:#333333" />
    </g>
    <g
       id="g827"
       transform="matrix(0.28174774,0,0,0.30442757,33.532946,3.5373403)">
      <g
         id="g819">
        <g
           id="g817">
          <path
             id="path815"
             d="m 78.938,23.128 c 0,0 21.667,-2.51 24.791,9.241 3.125,11.753 4.172,15.697 4.172,15.697 0,0 -22.295,0.147 -25.418,-11.604 C 79.361,24.713 78.938,23.128 78.938,23.128 Z"
             style="fill:#856040" />
        </g>
      </g>
      <g
         id="g825">
        <g
           id="g823">
          <path
             id="path821"
             d="m 84.071,27.546 c 0,0 13.99,-1.618 16.005,5.966 2.017,7.586 2.694,10.133 2.694,10.133 0,0 -14.394,0.096 -16.411,-7.49 -2.017,-7.586 -2.288,-8.609 -2.288,-8.609 z"
             style="fill:#e49788" />
        </g>
      </g>
    </g>
    <g
       id="g841"
       transform="matrix(0.32018912,0,0,0.30442598,25.041284,3.3675073)">
      <g
         id="g833">
        <g
           id="g831">
          <path
             id="path829"
             d="m 34.782,23.686 c 0,0 -21.667,-2.51 -24.792,9.241 -3.123,11.753 -4.171,15.696 -4.171,15.696 0,0 22.294,0.147 25.418,-11.603 3.123,-11.749 3.545,-13.334 3.545,-13.334 z"
             style="fill:#856040" />
        </g>
      </g>
      <g
         id="g839">
        <g
           id="g837">
          <path
             id="path835"
             d="m 29.65,28.104 c 0,0 -13.99,-1.619 -16.005,5.965 -2.017,7.586 -2.694,10.134 -2.694,10.134 0,0 14.394,0.095 16.411,-7.491 2.017,-7.585 2.288,-8.608 2.288,-8.608 z"
             style="fill:#e49788" />
        </g>
      </g>
    </g>
  </g>
</svg>
