<?xml version="1.0" encoding="UTF-8" standalone="no"?>
<svg
   xmlns:dc="http://purl.org/dc/elements/1.1/"
   xmlns:cc="http://creativecommons.org/ns#"
   xmlns:rdf="http://www.w3.org/1999/02/22-rdf-syntax-ns#"
   xmlns:svg="http://www.w3.org/2000/svg"
   xmlns="http://www.w3.org/2000/svg"
   xmlns:sodipodi="http://sodipodi.sourceforge.net/DTD/sodipodi-0.dtd"
   xmlns:inkscape="http://www.inkscape.org/namespaces/inkscape"
   inkscape:version="1.0 (4035a4f, 2020-05-01)"
   sodipodi:docname="vaquero (1).svg"
   xml:space="preserve"
   style="enable-background:new 0 0 496 496;"
   viewBox="0 0 496 496"
   y="0px"
   x="0px"
   id="Capa_1"
   version="1.1"><metadata
   id="metadata924"><rdf:RDF><cc:Work
       rdf:about=""><dc:format>image/svg+xml</dc:format><dc:type
         rdf:resource="http://purl.org/dc/dcmitype/StillImage" /></cc:Work></rdf:RDF></metadata><defs
   id="defs922" /><sodipodi:namedview
   inkscape:current-layer="Capa_1"
   inkscape:window-maximized="1"
   inkscape:window-y="23"
   inkscape:window-x="0"
   inkscape:cy="283.14332"
   inkscape:cx="255.98712"
   inkscape:zoom="1.2520161"
   showgrid="false"
   id="namedview920"
   inkscape:window-height="808"
   inkscape:window-width="1440"
   inkscape:pageshadow="2"
   inkscape:pageopacity="0"
   guidetolerance="10"
   gridtolerance="10"
   objecttolerance="10"
   borderopacity="1"
   bordercolor="#666666"
   pagecolor="#ffffff" />
<rect
   id="rect833"
   height="48"
   width="336"
   style="fill:#F9E0A6;"
   y="440"
   x="80" />
<rect
   id="rect835"
   height="24"
   width="336"
   style="fill:#EABD8C;"
   y="440"
   x="80" />
<path
   id="path837"
   d="M416,386.6c0-20.664-13.224-39-32.824-45.536L304,314.664H192l-79.176,26.392  C93.224,347.592,80,365.936,80,386.6V440h56v48h224v-48h56V386.6z"
   style="fill:#ECECEC;" />
<path
   id="path839"
   d="M383.176,341.056L304,314.664h-35.552L264,328l103.768,41.504c9.8,3.92,16.232,13.424,16.232,23.984  V440h32v-53.4C416,365.936,402.776,347.592,383.176,341.056z"
   style="fill:#B6C1CE;" />
<path
   id="path841"
   d="M95.12,351.768c0.304,0.088,0.568,0.144,0.88,0.232l40,40v48l-55.808-55.808  C80.824,371.616,86.288,360.104,95.12,351.768z"
   style="fill:#FCD770;" />
<rect
   id="rect843"
   height="64"
   width="224"
   style="fill:#8C95A4;"
   y="136"
   x="136" />
<rect
   id="rect845"
   height="128"
   width="112"
   style="fill:#FCD770;"
   y="304"
   x="192" />
<g
   id="g853">
	<path
   id="path847"
   d="M184,264v16.616c0,4.904,0.6,9.792,1.792,14.552c3.968,15.864,14.24,29.424,28.432,37.536L248,352   l40.584-23.192c9.928-5.672,17.416-14.808,21.032-25.656c1.576-4.736,2.384-9.696,2.384-14.696V264H184z"
   style="fill:#FB5968;" />
	<path
   id="path849"
   d="M147.376,296c3.072,0,6.128-0.376,9.112-1.12L184,288v-7.384l-25.664-13.32   c-4.16-2.168-8.784-3.296-13.48-3.296c-5.776,0-11.424,1.712-16.232,4.912L112,280l14.536,9.688   C132.704,293.808,139.96,296,147.376,296z"
   style="fill:#FB5968;" />
	<path
   id="path851"
   d="M132,296l-12,8l14.536,9.688c6.168,4.12,13.424,6.312,20.84,6.312c3.072,0,6.128-0.376,9.112-1.12   L192,312v-24L132,296z"
   style="fill:#FB5968;" />
</g>
<path
   id="path855"
   d="M168,136v80c0,44.184,35.816,80,80,80s80-35.816,80-80v-80H168z"
   style="fill:#F9E0A6;" />
<rect
   id="rect857"
   height="32"
   width="160"
   style="fill:#FB5968;"
   y="136"
   x="168" />
<rect
   id="rect859"
   height="32"
   width="48"
   style="fill:#CD2C5A;"
   y="136"
   x="280" />
<polygon
   id="polygon861"
   points="360,488 360,336 304,320 248,416 192,312 136,336 136,488 "
   style="fill:#B27946;" />
<polygon
   id="polygon863"
   points="292.648,339.456 360,366.4 360,336 304,320 "
   style="fill:#A0693C;" />
<path
   id="path865"
   d="M168,168c-17.672,0-32,14.328-32,32s14.328,32,32,32h160c17.672,0,32-14.328,32-32s-14.328-32-32-32  H168z"
   style="fill:#F9E0A6;" />
<path
   id="path867"
   d="M304,8c-32,0-40,16-56,16S224,8,192,8c-26.944,0-39.368,43.568-44.608,72L144,128h208l-4.984-56  C341.016,44.08,328.52,8,304,8z"
   style="fill:#D3A06C;" />
<path
   id="path869"
   d="M319.76,64.12C299.8,73.624,269.624,88,248,88s-51.8-14.376-71.76-23.88  c-5.944-2.832-11.304-5.384-15.84-7.344c-2.248-0.968-4.552-1.736-6.848-2.544c-2.696,8.92-4.72,17.92-6.16,25.768L144,128h208  l-4.984-56c-1.224-5.712-2.744-11.76-4.56-17.768c-2.296,0.808-4.608,1.576-6.856,2.552C331.064,58.736,325.704,61.28,319.76,64.12z  "
   style="fill:#B27946;" />
<path
   id="path871"
   d="M122.424,136c-6.792,0-13.44-2.008-19.096-5.784l0,0C93.752,123.832,88,113.088,88,101.576l0,0  C88,85.24,101.24,72,117.576,72l0,0c11.456,0,22.792,2.272,33.312,6.816C172.664,88.208,214.28,112,248,112  s75.336-23.792,97.112-33.184C355.632,74.272,366.96,72,378.424,72l0,0C394.76,72,408,85.24,408,101.576l0,0  c0,11.512-5.752,22.256-15.328,28.64l0,0c-5.656,3.776-12.296,5.784-19.096,5.784H122.424z"
   style="fill:#D3A06C;" />
<path
   id="path873"
   d="M400.88,351.768c-0.304,0.088-0.568,0.144-0.88,0.232l-40,40v48l55.808-55.808  C415.176,371.616,409.712,360.104,400.88,351.768z"
   style="fill:#FCD770;" />
<path
   id="path875"
   d="M415.808,384.192c-0.632-12.576-6.096-24.088-14.928-32.424c-0.304,0.088-0.568,0.144-0.88,0.232  l-23.432,23.432c4.648,4.736,7.432,11.152,7.432,18.056V416L415.808,384.192z"
   style="fill:#FFC729;" />

<path
   id="path879"
   d="M385.712,333.48l-70.4-23.472c0.624-1.448,1.392-2.816,1.896-4.328c1.856-5.56,2.792-11.36,2.792-17.216V266.44  c5.68-8.08,10-17.16,12.712-26.912C352.528,237.16,368,220.44,368,200v-56h5.576c8.408,0,16.544-2.464,23.528-7.128  C408.936,128.992,416,115.8,416,101.576C416,80.856,399.144,64,378.424,64c-8.328,0-16.432,1.184-24.28,3.32  C344.144,23.296,326.848,0,304,0c-20.712,0-32.824,6.328-41.664,10.944C256.72,13.88,252.664,16,248,16s-8.72-2.12-14.336-5.056  C224.824,6.328,212.712,0,192,0c-22.976,0-40.2,23.248-50.152,67.32C134,65.184,125.896,64,117.576,64  C96.856,64,80,80.856,80,101.576c0,14.216,7.064,27.416,18.888,35.296c6.984,4.664,15.128,7.128,23.536,7.128H128v56  c0,20.44,15.472,37.16,35.288,39.52c2.712,9.76,7.032,18.832,12.712,26.92v1.008l-13.976-7.256  c-11.808-6.144-26.728-5.328-37.832,2.072L97.568,280l22.008,14.664l-14,9.336l24.512,16.344c2.408,1.608,4.984,2.88,7.616,3.992  l-27.424,9.144C87.392,341.104,72,362.456,72,386.592V496h352V386.592C424,362.456,408.608,341.104,385.712,333.48z M88,403.312  L116.688,432H88V403.312z M128,395.312v25.376L88.432,381.12c0.912-6.648,3.424-12.848,7.264-18.112L128,395.312z M144,339.096  l45.36-15.12l58.36,108.384l62.528-107.184L352,339.096V480H144V339.096z M302.032,300.624c-3,8.984-9.184,16.528-17.416,21.24  L248,342.792l-29.808-17.032c-12.24-7-21.224-18.856-24.64-32.528c-0.76-3.032-1.144-6.128-1.344-9.232  C207.4,296.488,226.84,304,248,304c21.256,0,40.776-7.576,56-20.168v4.632C304,292.6,303.336,296.696,302.032,300.624z   M282.04,341.768l-33.752,57.872l-29.768-55.272l29.48,16.84L282.04,341.768z M400.304,363.016  c3.84,5.264,6.352,11.464,7.264,18.112L368,420.688v-25.376L400.304,363.016z M408,403.312V432h-28.688L408,403.312z   M388.384,352.304L368,372.688v-28.256l12.648,4.216C383.416,349.568,385.952,350.856,388.384,352.304z M248,288  c-39.704,0-72-32.296-72-72v-40h144v40C320,255.704,287.704,288,248,288z M320,144v16H176v-16H320z M335.664,222.632  c0.168-2.2,0.336-4.392,0.336-6.632v-38.528c9.288,3.312,16,12.112,16,22.528C352,210.536,345.128,219.416,335.664,222.632z   M352,168.208c-4.672-3.536-10.056-6.184-16-7.392V144h16V168.208z M192,16c16.784,0,26.064,4.848,34.256,9.136  C232.728,28.504,239.408,32,248,32c8.592,0,15.272-3.496,21.744-6.864C277.936,20.848,287.216,16,304,16  c14.376,0,27.104,20.704,34.992,56.8c-3.728,1.68-7.792,3.584-12.352,5.752C304.104,89.296,273.24,104,248,104  s-56.104-14.704-78.64-25.448c-4.56-2.168-8.624-4.08-12.352-5.752C161.832,50.84,172.568,16,192,16z M107.768,123.56  C100.4,118.656,96,110.44,96,101.576C96,89.68,105.68,80,117.576,80c10.528,0,20.672,2.072,30.144,6.16  c4.224,1.832,9.216,4.2,14.76,6.84c23.912,11.4,56.664,27,85.52,27s61.608-15.6,85.52-27c5.536-2.64,10.528-5.016,14.76-6.84  c9.472-4.088,19.608-6.16,30.144-6.16C390.32,80,400,89.68,400,101.576c0,8.856-4.4,17.08-11.768,21.984  c-4.352,2.912-9.416,4.44-14.656,4.44H122.424C117.184,128,112.12,126.472,107.768,123.56z M160,144v16.808  c-5.944,1.216-11.328,3.856-16,7.392V144H160z M144,200c0-10.416,6.712-19.216,16-22.528V216c0,2.24,0.168,4.432,0.336,6.632  C150.872,219.416,144,210.536,144,200z M133.072,275.568c6.328-4.216,14.848-4.672,21.576-1.176l16.504,8.568l-16.624,4.16  c-7.96,2-16.672,0.496-23.552-4.088L126.432,280L133.072,275.568z M136.36,302.544c3.584,0.896,7.264,1.456,11.016,1.456  c3.744,0,7.464-0.464,11.048-1.368l19.792-4.944c0.784,3.008,1.816,5.92,2.992,8.768l-18.672,4.664  c-7.96,2-16.68,0.504-23.552-4.088l-4.56-3.032l2.016-1.344L136.36,302.544z M115.352,348.648L128,344.432v28.256l-20.384-20.384  C110.048,350.856,112.584,349.568,115.352,348.648z M88,448h40v32H88V448z M368,480v-32h40v32H368z" />
<circle
   id="circle881"
   r="8"
   cy="192"
   cx="288" />
<circle
   id="circle883"
   r="8"
   cy="192"
   cx="208" />
<path
   id="path885"
   d="M248,248c-8.824,0-16-7.176-16-16h-16c0,17.648,14.352,32,32,32s32-14.352,32-32h-16C264,240.824,256.824,248,248,248z" />

<g
   id="g889">
</g>
<g
   id="g891">
</g>
<g
   id="g893">
</g>
<g
   id="g895">
</g>
<g
   id="g897">
</g>
<g
   id="g899">
</g>
<g
   id="g901">
</g>
<g
   id="g903">
</g>
<g
   id="g905">
</g>
<g
   id="g907">
</g>
<g
   id="g909">
</g>
<g
   id="g911">
</g>
<g
   id="g913">
</g>
<g
   id="g915">
</g>
<g
   id="g917">
</g>
</svg>
